<?xml version="1.0" encoding="UTF-8" standalone="no"?>
<svg
   id="Capa_1"
   data-name="Capa 1"
   viewBox="0 0 1913.96 410.01"
   version="1.1"
   sodipodi:docname="amtega_logo.svg"
   inkscape:version="1.1.1 (3bf5ae0d25, 2021-09-20)"
   xmlns:inkscape="http://www.inkscape.org/namespaces/inkscape"
   xmlns:sodipodi="http://sodipodi.sourceforge.net/DTD/sodipodi-0.dtd"
   xmlns="http://www.w3.org/2000/svg"
   xmlns:svg="http://www.w3.org/2000/svg">
  <sodipodi:namedview
     id="namedview101"
     pagecolor="#027BC3"
     bordercolor="#666666"
     borderopacity="1.0"
     inkscape:pageshadow="2"
     inkscape:pageopacity="0.0"
     inkscape:pagecheckerboard="0"
     showgrid="false"
     inkscape:zoom="0.59248888"
     inkscape:cx="957.82388"
     inkscape:cy="340.09077"
     inkscape:window-width="1920"
     inkscape:window-height="1017"
     inkscape:window-x="-8"
     inkscape:window-y="43"
     inkscape:window-maximized="1"
     inkscape:current-layer="Capa_1" />
  <defs
     id="defs4">
    <style
       id="style2">.cls-1{fill:#007bc4;}</style>
  </defs>
  <path
     class="cls-1"
     d="M499.09,41.66H506l34.3,81.62h-11.7l-7.93-20H484.07l-8.05,20H464.79Zm17.62,51.93L502.4,57.75,488,93.59Z"
     id="path6"
     style="fill:#027BC3;fill-opacity:1" />
  <path
     class="cls-1"
     d="M571.13,81.29,545,41.66h12.54l20.35,30.87L598,41.66h12.06L583.91,81.53l27.56,41.75H598.93l-21.76-33-21.53,33H543.57Z"
     id="path8"
     style="fill:#027BC3;fill-opacity:1" />
  <path
     class="cls-1"
     d="M624,41.66h50.15l-3.31,9.93h-36.2V75.72h32.42v9.94H634.65v27.69h36.68l3.31,9.93H624Z"
     id="path10"
     style="fill:#027BC3;fill-opacity:1" />
  <path
     class="cls-1"
     d="M690,41.66h9l41.76,58.19V41.66h10.65v81.62h-6L700.66,60.94v62.34H690Z"
     id="path12"
     style="fill:#027BC3;fill-opacity:1" />
  <path
     class="cls-1"
     d="M785.17,119.8a34.45,34.45,0,0,1-12.41-15.15q-4.32-9.77-4.32-22.77a52.83,52.83,0,0,1,4.37-22.12A33.55,33.55,0,0,1,785.36,45a34.62,34.62,0,0,1,19-5.21,44.9,44.9,0,0,1,14.31,2.43,45.48,45.48,0,0,1,12.9,6.69V61.29A71,71,0,0,0,817.53,53a33.25,33.25,0,0,0-13.13-3.07,22,22,0,0,0-12.72,3.85,25,25,0,0,0-8.75,11.11,42.63,42.63,0,0,0-3.13,17,46,46,0,0,0,3.07,17.62A25.84,25.84,0,0,0,791.5,111a21.54,21.54,0,0,0,12.9,4,33.25,33.25,0,0,0,13.13-3.07,71,71,0,0,0,14.08-8.28v12.42a45.46,45.46,0,0,1-12.9,6.68,44.9,44.9,0,0,1-14.31,2.43A34,34,0,0,1,785.17,119.8Z"
     id="path14"
     style="fill:#027BC3;fill-opacity:1" />
  <path
     class="cls-1"
     d="M848.41,41.66h10.64v81.62H848.41Z"
     id="path16"
     style="fill:#027BC3;fill-opacity:1" />
  <path
     class="cls-1"
     d="M905.89,41.66h6.86l34.31,81.62H935.35l-7.93-20H890.87l-8,20H871.59Zm17.63,51.93L909.2,57.75,894.77,93.59Z"
     id="path18"
     style="fill:#027BC3;fill-opacity:1" />
  <path
     class="cls-1"
     d="M1013.66,41.66q13.37,0,21,6.69t7.63,18.51q0,12.18-7.63,19t-20.75,6.86h-12.19v30.52H991.07V41.66Zm12.77,37q4.74-4.38,4.74-11.83,0-7.22-4.86-11.36c-3.23-2.75-7.61-4.15-13.12-4.15h-11.48V83.06h11.72Q1021.7,83.06,1026.43,78.69Z"
     id="path20"
     style="fill:#027BC3;fill-opacity:1" />
  <path
     class="cls-1"
     d="M1077.31,41.66h6.85l34.31,81.62h-11.71l-7.92-20h-36.56l-8,20H1043Zm17.62,51.93-14.31-35.84-14.44,35.84Z"
     id="path22"
     style="fill:#027BC3;fill-opacity:1" />
  <path
     class="cls-1"
     d="M1154.67,41.66q12.88,0,20.22,6.15c4.9,4.11,7.34,9.81,7.34,17.15,0,7-2.25,12.62-6.74,16.81s-10.61,6.46-18.34,6.86l31.35,34.65h-13.84l-30.4-34.54h-2.6v34.54H1131V41.66Zm11.65,34.06a13.06,13.06,0,0,0,4.79-10.52,12.48,12.48,0,0,0-4.49-10.12c-3-2.47-7.14-3.73-12.43-3.73h-12.53V79.74h12.06C1158.93,79.74,1163.12,78.41,1166.32,75.72Z"
     id="path24"
     style="fill:#027BC3;fill-opacity:1" />
  <path
     class="cls-1"
     d="M1226.59,41.66h6.86l34.3,81.62h-11.7l-7.93-20h-36.55l-8,20h-11.23Zm17.62,51.93L1229.9,57.75l-14.43,35.84Z"
     id="path26"
     style="fill:#027BC3;fill-opacity:1" />
  <path
     class="cls-1"
     d="M1336.84,41.66h6.86l34.3,81.62h-11.7l-7.93-20h-36.55l-8,20h-11.23Zm17.62,51.93-14.31-35.84-14.43,35.84Z"
     id="path28"
     style="fill:#027BC3;fill-opacity:1" />
  <path
     class="cls-1"
     d="M474,164.19h9.7L513.52,225l29.81-60.81h9.47v81.62H542.62V186.66L515.18,243h-3.55l-27.44-56.19v59H474Z"
     id="path30"
     style="fill:#027BC3;fill-opacity:1" />
  <path
     class="cls-1"
     d="M587.16,242.68a34,34,0,0,1-12.84-15.13q-4.5-9.9-4.5-23.14a51.75,51.75,0,0,1,4.5-22.23,34.2,34.2,0,0,1,12.84-14.85,38.61,38.61,0,0,1,38.91,0,34.33,34.33,0,0,1,12.84,14.85,51.9,51.9,0,0,1,4.49,22.23q0,13.25-4.49,23.14a34.1,34.1,0,0,1-12.84,15.13,38.55,38.55,0,0,1-38.91,0Zm38.08-13.6q6.81-8.69,6.81-24.67a43.28,43.28,0,0,0-3.14-17.21A24.68,24.68,0,0,0,620,176.08a25.33,25.33,0,0,0-26.85,0,24.68,24.68,0,0,0-8.87,11.12,43.28,43.28,0,0,0-3.13,17.21q0,16,6.8,24.67t18.63,8.7Q618.44,237.78,625.24,229.08Z"
     id="path32"
     style="fill:#027BC3;fill-opacity:1" />
  <path
     class="cls-1"
     d="M706.75,168.93a32.5,32.5,0,0,1,13.6,13.77q4.8,9.06,4.79,21.71c0,8.67-1.57,16.14-4.73,22.36A33,33,0,0,1,707.16,241a39.25,39.25,0,0,1-19.75,4.84h-27V164.19h25.79A42.67,42.67,0,0,1,706.75,168.93Zm-.35,58.91q7.38-8.06,7.39-23.43,0-14.67-7.63-22.47T686,174.13h-14.9v61.75H686.7Q699,235.88,706.4,227.84Z"
     id="path34"
     style="fill:#027BC3;fill-opacity:1" />
  <path
     class="cls-1"
     d="M742.18,164.19h50.16L789,174.13H752.83v24.13h32.41v9.93H752.83v27.69H789.5l3.31,9.93H742.18Z"
     id="path36"
     style="fill:#027BC3;fill-opacity:1" />
  <path
     class="cls-1"
     d="M831.85,164.19q12.9,0,20.23,6.16t7.33,17.14c0,7-2.25,12.62-6.74,16.81s-10.61,6.47-18.34,6.86l31.35,34.65H851.84l-30.4-34.54h-2.6v34.54H808.19V164.19Zm11.65,34.07a13.09,13.09,0,0,0,4.8-10.53,12.49,12.49,0,0,0-4.5-10.12c-3-2.47-7.14-3.72-12.42-3.72H818.84v28.39H830.9Q838.72,202.28,843.5,198.26Z"
     id="path38"
     style="fill:#027BC3;fill-opacity:1" />
  <path
     class="cls-1"
     d="M878.69,164.19h9l41.76,58.2v-58.2h10.65v81.62h-6l-44.71-62.34v62.34H878.69Z"
     id="path40"
     style="fill:#027BC3;fill-opacity:1" />
  <path
     class="cls-1"
     d="M961.85,164.19h10.64v81.62H961.85Z"
     id="path42"
     style="fill:#027BC3;fill-opacity:1" />
  <path
     class="cls-1"
     d="M987.39,242l43.53-67.9H991.3l-3.2-9.94h58.67V168l-43.53,67.91h41.29l3.19,9.93H987.39Z"
     id="path44"
     style="fill:#027BC3;fill-opacity:1" />
  <path
     class="cls-1"
     d="M1087.71,164.19h6.85l34.31,81.62h-11.71l-7.92-20h-36.56l-8,20H1053.4Zm17.62,51.93L1091,180.28l-14.44,35.84Z"
     id="path46"
     style="fill:#027BC3;fill-opacity:1" />
  <path
     class="cls-1"
     d="M1151.28,242.33a34.39,34.39,0,0,1-12.41-15.15q-4.32-9.77-4.32-22.77a52.83,52.83,0,0,1,4.37-22.12,33.52,33.52,0,0,1,12.55-14.78,34.63,34.63,0,0,1,19-5.22,44.64,44.64,0,0,1,14.31,2.44,45.46,45.46,0,0,1,12.9,6.68v12.41a70.44,70.44,0,0,0-14.08-8.27,33.1,33.1,0,0,0-13.13-3.08,22,22,0,0,0-12.72,3.85,25.07,25.07,0,0,0-8.75,11.12,42.58,42.58,0,0,0-3.13,17A46,46,0,0,0,1149,222a26,26,0,0,0,8.64,11.48,21.49,21.49,0,0,0,12.89,4,33.27,33.27,0,0,0,13.13-3.08,70.5,70.5,0,0,0,14.08-8.28v12.43a45.69,45.69,0,0,1-12.9,6.67,44.63,44.63,0,0,1-14.31,2.43A34,34,0,0,1,1151.28,242.33Z"
     id="path48"
     style="fill:#027BC3;fill-opacity:1" />
  <path
     class="cls-1"
     d="M1214.52,164.19h10.64v81.62h-10.64Z"
     id="path50"
     style="fill:#027BC3;fill-opacity:1" />
  <path
     class="cls-1"
     d="M1259.53,242.68a34,34,0,0,1-12.84-15.13q-4.5-9.9-4.5-23.14a51.75,51.75,0,0,1,4.5-22.23,34.2,34.2,0,0,1,12.84-14.85,38.61,38.61,0,0,1,38.91,0,34.33,34.33,0,0,1,12.84,14.85,51.9,51.9,0,0,1,4.49,22.23q0,13.25-4.49,23.14a34.1,34.1,0,0,1-12.84,15.13,38.55,38.55,0,0,1-38.91,0Zm38.08-13.6q6.81-8.69,6.8-24.67a43.28,43.28,0,0,0-3.13-17.21,24.75,24.75,0,0,0-8.87-11.12,25.35,25.35,0,0,0-26.86,0,24.66,24.66,0,0,0-8.86,11.12,43.1,43.1,0,0,0-3.14,17.21q0,16,6.8,24.67t18.63,8.7Q1290.81,237.78,1297.61,229.08Zm-24.54-77.55L1283.24,136h13.84l-16.8,19.63Z"
     id="path52"
     style="fill:#027BC3;fill-opacity:1" />
  <path
     class="cls-1"
     d="M1332.81,164.19h9l41.77,58.2v-58.2h10.64v81.62h-6l-44.71-62.34v62.34h-10.64Z"
     id="path54"
     style="fill:#027BC3;fill-opacity:1" />
  <path
     class="cls-1"
     d="M497.43,296.66H467.86l-3.31-9.94H541l-3.31,9.94H508.08v71.69H497.43Z"
     id="path56"
     style="fill:#027BC3;fill-opacity:1" />
  <path
     class="cls-1"
     d="M553.27,286.72h50.16l-3.32,9.94h-36.2v24.13h32.42v9.94H563.91v27.68h36.68l3.31,9.94H553.27Z"
     id="path58"
     style="fill:#027BC3;fill-opacity:1" />
  <path
     class="cls-1"
     d="M629.86,364.86a34.36,34.36,0,0,1-12.42-15.15Q613.12,340,613.12,327a52.64,52.64,0,0,1,4.38-22.12A33.53,33.53,0,0,1,630,290a34.66,34.66,0,0,1,19.05-5.21,44.67,44.67,0,0,1,14.31,2.43A45.17,45.17,0,0,1,676.29,294v12.41a70.44,70.44,0,0,0-14.07-8.28A33.31,33.31,0,0,0,649.09,295a22.09,22.09,0,0,0-12.72,3.85A25,25,0,0,0,627.62,310a42.45,42.45,0,0,0-3.14,17,45.8,45.8,0,0,0,3.08,17.62,25.9,25.9,0,0,0,8.63,11.48,21.52,21.52,0,0,0,12.9,4A33.31,33.31,0,0,0,662.22,357a70.38,70.38,0,0,0,14.07-8.27v12.42a47.22,47.22,0,0,1-27.2,9.11A33.93,33.93,0,0,1,629.86,364.86Z"
     id="path60"
     style="fill:#027BC3;fill-opacity:1" />
  <path
     class="cls-1"
     d="M693.09,286.72h9l41.76,58.2v-58.2h10.65v81.63h-6L703.74,306v62.34H693.09Z"
     id="path62"
     style="fill:#027BC3;fill-opacity:1" />
  <path
     class="cls-1"
     d="M788.85,365.21A33.92,33.92,0,0,1,776,350.08q-4.5-9.88-4.5-23.13a51.76,51.76,0,0,1,4.5-22.24,34.2,34.2,0,0,1,12.84-14.85,38.61,38.61,0,0,1,38.91,0,34.33,34.33,0,0,1,12.84,14.85A51.91,51.91,0,0,1,845.09,327q0,13.23-4.49,23.13a34,34,0,0,1-12.84,15.13,38.55,38.55,0,0,1-38.91,0Zm38.08-13.6q6.81-8.69,6.81-24.66a43.33,43.33,0,0,0-3.14-17.22,24.61,24.61,0,0,0-8.87-11.12,25.33,25.33,0,0,0-26.85,0A24.75,24.75,0,0,0,786,309.73,43.33,43.33,0,0,0,782.88,327q0,16,6.8,24.66t18.63,8.7Q820.13,360.31,826.93,351.61Z"
     id="path64"
     style="fill:#027BC3;fill-opacity:1" />
  <path
     class="cls-1"
     d="M862.13,286.72h10.65v71.69h37.85l3.31,9.94H862.13Z"
     id="path66"
     style="fill:#027BC3;fill-opacity:1" />
  <path
     class="cls-1"
     d="M937,365.21a34,34,0,0,1-12.84-15.13q-4.5-9.88-4.49-23.13,0-12.66,4.49-22.24A34.33,34.33,0,0,1,937,289.86a38.63,38.63,0,0,1,38.92,0,34.4,34.4,0,0,1,12.84,14.85A51.91,51.91,0,0,1,993.2,327q0,13.23-4.49,23.13a34.11,34.11,0,0,1-12.84,15.13,38.56,38.56,0,0,1-38.92,0ZM975,351.61q6.81-8.69,6.8-24.66a43.51,43.51,0,0,0-3.13-17.22,24.75,24.75,0,0,0-8.87-11.12,25.35,25.35,0,0,0-26.86,0,24.75,24.75,0,0,0-8.87,11.12A43.33,43.33,0,0,0,931,327q0,16,6.8,24.66t18.63,8.7Q968.23,360.31,975,351.61Zm-24.55-77.55,10.18-15.48h13.84l-16.8,19.63Z"
     id="path68"
     style="fill:#027BC3;fill-opacity:1" />
  <path
     class="cls-1"
     d="M1026.91,326.36l-26.14-39.64h12.54l20.35,30.88,20.11-30.88h12.06l-26.15,39.87,27.57,41.76h-12.54l-21.76-33-21.53,33H999.35Z"
     id="path70"
     style="fill:#027BC3;fill-opacity:1" />
  <path
     class="cls-1"
     d="M1079.79,286.72h10.64v81.63h-10.64Z"
     id="path72"
     style="fill:#027BC3;fill-opacity:1" />
  <path
     class="cls-1"
     d="M1124.2,364.86a34.29,34.29,0,0,1-12.42-15.15q-4.32-9.75-4.32-22.76a52.64,52.64,0,0,1,4.38-22.12A33.41,33.41,0,0,1,1124.38,290a34.62,34.62,0,0,1,19-5.21,44.63,44.63,0,0,1,14.31,2.43,45.22,45.22,0,0,1,12.9,6.69v12.41a70.5,70.5,0,0,0-14.08-8.28,33.27,33.27,0,0,0-13.13-3.08,22.12,22.12,0,0,0-12.72,3.85A25.07,25.07,0,0,0,1122,310a42.63,42.63,0,0,0-3.13,17,46,46,0,0,0,3.07,17.62,25.92,25.92,0,0,0,8.64,11.48,21.49,21.49,0,0,0,12.89,4,33.27,33.27,0,0,0,13.13-3.08,70.44,70.44,0,0,0,14.08-8.27v12.42a45.18,45.18,0,0,1-12.9,6.67,44.64,44.64,0,0,1-14.31,2.44A33.92,33.92,0,0,1,1124.2,364.86Z"
     id="path74"
     style="fill:#027BC3;fill-opacity:1" />
  <path
     class="cls-1"
     d="M1213.7,286.72h6.85l34.31,81.63h-11.71l-7.92-20h-36.56l-8,20h-11.24Zm17.62,51.93L1217,302.82l-14.44,35.83Z"
     id="path76"
     style="fill:#027BC3;fill-opacity:1" />
  <path
     class="cls-1"
     d="M1345.18,291.46a32.5,32.5,0,0,1,13.6,13.77q4.8,9.07,4.79,21.72,0,13-4.73,22.36a33,33,0,0,1-13.25,14.19,39.25,39.25,0,0,1-19.75,4.85h-27V286.72h25.79A42.7,42.7,0,0,1,1345.18,291.46Zm-.36,58.91q7.4-8,7.4-23.42,0-14.68-7.64-22.48t-20.16-7.81h-14.91v61.75h15.62Q1337.43,358.41,1344.82,350.37Z"
     id="path78"
     style="fill:#027BC3;fill-opacity:1" />
  <path
     class="cls-1"
     d="M1380.61,286.72h50.16l-3.32,9.94h-36.19v24.13h32.41v9.94h-32.41v27.68h36.67l3.31,9.94h-50.63Z"
     id="path80"
     style="fill:#027BC3;fill-opacity:1" />
  <path
     class="cls-1"
     d="M1490.69,365.21a34,34,0,0,1-12.84-15q-4.5-9.76-4.5-23a47.69,47.69,0,0,1,5-22.25,35.81,35.81,0,0,1,14.08-14.84,41.2,41.2,0,0,1,21-5.27,48.49,48.49,0,0,1,14.2,2.32,63.87,63.87,0,0,1,13.84,6v12.3a86,86,0,0,0-15.14-7.58c-5-1.88-9.35-2.84-12.9-2.84a27.82,27.82,0,0,0-14.9,4,27.53,27.53,0,0,0-10.18,11.37,37.14,37.14,0,0,0-3.66,16.8,44.64,44.64,0,0,0,3.19,17.56,25.91,25.91,0,0,0,9,11.53,22.9,22.9,0,0,0,13.37,4q10.77,0,17.8-6.45t8-17.81h-22.83l-3.2-9.93h36.56a35.84,35.84,0,0,1,.71,7.45,39.47,39.47,0,0,1-4.56,19.16,32.27,32.27,0,0,1-13,13.07,39.43,39.43,0,0,1-19.52,4.68A35.74,35.74,0,0,1,1490.69,365.21Z"
     id="path82"
     style="fill:#027BC3;fill-opacity:1" />
  <path
     class="cls-1"
     d="M1589.17,286.72H1596l34.31,81.63h-11.71l-7.92-20h-36.56l-8,20h-11.24Zm17.62,51.93-14.31-35.83L1578,338.65Z"
     id="path84"
     style="fill:#027BC3;fill-opacity:1" />
  <path
     class="cls-1"
     d="M1642.87,286.72h10.65v71.69h37.85l3.31,9.94h-51.81Z"
     id="path86"
     style="fill:#027BC3;fill-opacity:1" />
  <path
     class="cls-1"
     d="M1707.69,286.72h10.65v81.63h-10.65Z"
     id="path88"
     style="fill:#027BC3;fill-opacity:1" />
  <path
     class="cls-1"
     d="M1752.1,364.86a34.34,34.34,0,0,1-12.41-15.15q-4.32-9.75-4.32-22.76a52.79,52.79,0,0,1,4.37-22.12A33.49,33.49,0,0,1,1752.29,290a34.62,34.62,0,0,1,19-5.21,44.63,44.63,0,0,1,14.31,2.43,45.22,45.22,0,0,1,12.9,6.69v12.41a70.5,70.5,0,0,0-14.08-8.28,33.27,33.27,0,0,0-13.13-3.08,22.12,22.12,0,0,0-12.72,3.85,25.07,25.07,0,0,0-8.75,11.12,42.63,42.63,0,0,0-3.13,17,46,46,0,0,0,3.07,17.62,25.92,25.92,0,0,0,8.64,11.48,21.49,21.49,0,0,0,12.89,4,33.27,33.27,0,0,0,13.13-3.08,70.44,70.44,0,0,0,14.08-8.27v12.42a45.18,45.18,0,0,1-12.9,6.67,44.64,44.64,0,0,1-14.31,2.44A34,34,0,0,1,1752.1,364.86Z"
     id="path90"
     style="fill:#027BC3;fill-opacity:1" />
  <path
     class="cls-1"
     d="M1815.34,286.72H1826v81.63h-10.64Z"
     id="path92"
     style="fill:#027BC3;fill-opacity:1" />
  <path
     class="cls-1"
     d="M1872.82,286.72h6.86L1914,368.35h-11.71l-7.93-20H1857.8l-8,20h-11.24Zm17.63,51.93-14.32-35.83-14.43,35.83Z"
     id="path94"
     style="fill:#027BC3;fill-opacity:1" />
  <path
     class="cls-1"
     d="M0,0V410H287V0ZM133.25,34.17h6.84V27.34h6.83v6.83h6.84V41h-6.84v6.83h-6.84V41h-6.83V34.17ZM82,328H68.34v13.67H54.67V328H41V314.34H54.67V300.67H68.34v13.67H82Zm0-82H68.34v13.67H54.67V246H41V232.34H54.67V218.67H68.34v13.67H82Zm0-82H68.34v13.67H54.67V164H41V150.34H54.67V136.67H68.34v13.67H82Zm68.62,143q-.28,3.64-.28,7.36A95.2,95.2,0,0,0,167.49,369h-48a95.2,95.2,0,0,0,17.15-54.66c0-2.48-.1-4.94-.28-7.36a47.85,47.85,0,0,1-40.72-47.31h95.67A47.85,47.85,0,0,1,150.62,307ZM164,150.34V164H150.34v13.67H136.67V164H123V150.34h13.66V136.67h13.67v13.67Zm-20.5,41a27.34,27.34,0,1,1-27.33,27.33A27.33,27.33,0,0,1,143.5,191.34Zm47.84-71.76H95.67V109.33h95.67ZM201,91.92l-5,7.17H183.21l9.14-13.19a13.42,13.42,0,0,0,2.09-7.05,11.16,11.16,0,0,0-3.09-8,12.15,12.15,0,0,0-9-3.82,22.31,22.31,0,0,0-2.59.14l0-.05a29.25,29.25,0,0,1,1.17,7.81c0,4.43-.48,8.19-2.82,12.17l-7.12,12H158.51l10.13-17.18a16.05,16.05,0,0,0,1.68-7A11.83,11.83,0,0,0,167,66.21a12.29,12.29,0,0,0-9-4.11c-4.23,0-7.28,1.22-9.32,3.71V99.09H138.38V65.81c-2-2.5-5.1-3.72-9.33-3.72a12.29,12.29,0,0,0-9,4.11,11.84,11.84,0,0,0-3.36,8.68,16,16,0,0,0,1.68,7l10.13,17.18H116.05l-7.11-12c-2.35-4-2.83-7.74-2.83-12.17a28.94,28.94,0,0,1,1.18-7.81l0,0a22.09,22.09,0,0,0-2.59-.14,12.1,12.1,0,0,0-9,3.83,11.11,11.11,0,0,0-3.1,8,13.35,13.35,0,0,0,2.1,7.06l9.14,13.18H91l-5-7.16a21.92,21.92,0,0,1-4-13.08A20.71,20.71,0,0,1,88.66,63a21.6,21.6,0,0,1,16-6.88,26.6,26.6,0,0,1,8.47,1.54,8.48,8.48,0,0,1,.73-.74,21.53,21.53,0,0,1,15.19-5.68A24.17,24.17,0,0,1,143.5,56,24.22,24.22,0,0,1,158,51.25a21.53,21.53,0,0,1,15.19,5.68,10,10,0,0,1,.72.74,26.71,26.71,0,0,1,8.48-1.54,21.56,21.56,0,0,1,16,6.88A20.71,20.71,0,0,1,205,78.84,21.94,21.94,0,0,1,201,91.92ZM246,328H232.34v13.67H218.67V328H205V314.34h13.67V300.67h13.67v13.67H246Zm0-82H232.34v13.67H218.67V246H205V232.34h13.67V218.67h13.67v13.67H246Zm0-82H232.34v13.67H218.67V164H205V150.34h13.67V136.67h13.67v13.67H246Z"
     id="path96"
     style="fill:#027BC3;fill-opacity:1" />
  <rect
     class="cls-1"
     x="368.99"
     y="0.21"
     width="13.75"
     height="409.8"
     id="rect98"
     style="fill:#027BC3;fill-opacity:1" />
</svg>
