<svg width="170" height="40" viewBox="0 0 170 40" fill="none" xmlns="http://www.w3.org/2000/svg">
<g clip-path="url(#clip0)">
<path d="M101.315 9.38269C100.772 9.38269 100.3 9.71191 100.111 10.2057L92.2958 29.5826C92.0833 30.0999 92.4847 30.6878 93.0513 30.6878C93.3819 30.6878 93.6888 30.4762 93.8069 30.1705L95.4597 26.0082C95.4597 26.0082 95.4597 26.0082 95.4833 26.0082H105.825L105.258 24.6208H96.05C96.05 24.6208 96.0499 24.6208 96.0263 24.5973L101.339 11.2404C101.362 11.2404 101.362 11.2404 101.362 11.2404L108.871 30.194C108.989 30.4997 109.296 30.7113 109.626 30.7113C110.193 30.7113 110.594 30.1469 110.382 29.6061L102.567 10.2293C102.331 9.68839 101.858 9.38269 101.315 9.38269Z" fill="#2B265B"/>
<path d="M146.365 9.38269C145.822 9.38269 145.35 9.71191 145.161 10.2057L137.346 29.5826C137.133 30.0999 137.535 30.6878 138.101 30.6878C138.432 30.6878 138.739 30.4762 138.857 30.1705L140.51 26.0082C140.51 26.0082 140.51 26.0082 140.533 26.0082H150.875L150.308 24.6208H141.1C141.1 24.6208 141.1 24.6208 141.076 24.5973L146.389 11.2404C146.413 11.2404 146.413 11.2404 146.413 11.2404L153.921 30.194C154.039 30.4997 154.346 30.7113 154.676 30.7113C155.243 30.7113 155.644 30.1469 155.432 29.6061L147.569 10.1822C147.357 9.68839 146.885 9.38269 146.365 9.38269Z" fill="#2B265B"/>
<path d="M119.094 28.736C119.071 28.736 119.071 28.736 119.071 28.736L111.043 9.853C110.925 9.57082 110.642 9.38269 110.311 9.38269C109.744 9.38269 109.367 9.94706 109.579 10.4644L117.867 29.9118C118.056 30.3821 118.528 30.6878 119.047 30.6878C119.567 30.6878 120.015 30.3821 120.228 29.9118L123.132 23.0688L122.306 21.164L119.094 28.736Z" fill="#2B265B"/>
<path d="M137.346 9.38271C137.039 9.38271 136.732 9.57083 136.614 9.85302L128.61 28.736C128.586 28.736 128.586 28.736 128.586 28.736L120.606 9.8295C120.488 9.54732 120.204 9.35919 119.897 9.35919C119.354 9.35919 118.976 9.92357 119.189 10.4174L127.453 29.8883C127.665 30.3586 128.114 30.6643 128.633 30.6643C129.153 30.6643 129.625 30.3586 129.814 29.8883L138.031 10.4644C138.29 9.94708 137.913 9.38271 137.346 9.38271Z" fill="#2B265B"/>
<path d="M59.8069 19.8942C59.8069 19.8706 59.8069 19.8706 59.8069 19.8706C61.5778 19.0241 62.7111 17.425 62.7111 15.144C62.7111 11.6402 59.9958 9.38269 56.6194 9.38269H49.9139C49.0402 9.38269 48.3319 10.0882 48.3319 10.9582V29.0887C48.3319 29.9588 49.0402 30.6643 49.9139 30.6643H57.3986C60.7514 30.6643 63.443 28.4538 63.443 24.95C63.4194 22.3868 61.9555 20.6702 59.8069 19.8942ZM56.9264 27.8189H51.5902C51.5902 27.8189 51.5666 27.8189 51.5666 27.7954V25.3027V21.3756V18.6713V15.7084V12.2516C51.5666 12.2516 51.5666 12.2281 51.5902 12.2281H56.1C57.8 12.2281 59.3111 13.4979 59.4291 15.1675C59.5708 17.0488 58.1069 18.6713 56.2416 18.6713H52.9125V21.3521H56.9264C58.7208 21.3521 60.1375 22.8336 60.1375 24.5502C60.1375 26.3374 58.7208 27.8189 56.9264 27.8189Z" fill="#2B265B"/>
<path d="M69.2514 9.38269C68.3541 9.38269 67.6222 10.1117 67.6222 11.0053V29.0417C67.6222 29.9353 68.3541 30.6643 69.2514 30.6643C70.1486 30.6643 70.8805 29.9353 70.8805 29.0417V11.0053C70.8805 10.1117 70.1486 9.38269 69.2514 9.38269Z" fill="#2B265B"/>
<path d="M74.8 10.8171C74.8 11.6167 75.4375 12.2516 76.2403 12.2516H86.0389C86.0389 12.2516 86.0389 12.2751 86.0625 12.2751L74.918 28.3363C74.6111 28.7831 74.5639 29.3945 74.8472 29.8648C75.0125 30.194 75.2958 30.4527 75.6264 30.5702C76.3111 30.8289 77.0194 30.5702 77.3972 30.0294L90.1472 11.6402C90.8083 10.676 90.1236 9.38269 88.9666 9.38269H88.6833H76.2639C75.4375 9.38269 74.8 10.0176 74.8 10.8171Z" fill="#2B265B"/>
<path d="M90.1708 29.6532C90.4542 28.7361 89.7458 27.819 88.8014 27.819H80.0417L78.0583 30.6879H88.8014C89.4389 30.6879 90.0056 30.2646 90.1708 29.6532Z" fill="#2B265B"/>
<path d="M160.154 15.7319L156.211 9.73544C156.069 9.5238 155.763 9.35919 155.526 9.35919C154.936 9.38271 154.606 10.0176 154.936 10.5115L161.618 20.5761V29.8648C161.618 30.3116 161.972 30.6643 162.421 30.6643C162.869 30.6643 163.224 30.3116 163.224 29.8648V20.7878C163.224 20.5291 163.153 20.2469 162.987 20.0353L160.154 15.7319Z" fill="#2B265B"/>
<path d="M169.244 9.38269C168.985 9.38269 168.749 9.50027 168.607 9.71191L163.2 17.9424L164.074 19.2592L169.882 10.535C170.212 10.0411 169.858 9.38269 169.244 9.38269Z" fill="#2B265B"/>
<path d="M0 19.9647C0 8.93592 8.97222 0 20.0458 0C31.1194 0 40.0917 8.93592 40.0917 19.9647C40.0917 30.9935 31.1194 39.9294 20.0458 39.9294C8.97222 39.9294 0 30.9935 0 19.9647Z" fill="#00BCD6"/>
<path d="M17.2597 20.6466V21.4697C17.2597 22.1987 17.85 22.7866 18.5819 22.7866H21.5805C22.3125 22.7866 22.9028 22.1987 22.9028 21.4697V20.6466H29.0653V19.2122H22.9028V18.4597C22.9028 17.7307 22.3125 17.1428 21.5805 17.1428H18.5819C17.85 17.1428 17.2597 17.7307 17.2597 18.4597V19.1887H11.0264V20.6231H17.2597V20.6466ZM18.5819 18.4597H21.6041V21.4697H18.5819V18.4597Z" fill="white"/>
<path d="M29.4903 9.61792C29.3958 9.45331 29.2542 9.31221 29.0653 9.26518C28.8764 9.19464 28.6875 9.21815 28.5222 9.2887C27.4597 9.80604 26.3264 10.2293 25.1694 10.5585L24.65 10.6996L24.4375 10.2058C23.7056 8.41862 21.9819 7.26636 20.0458 7.26636C18.1097 7.26636 16.3861 8.41862 15.6542 10.2058L15.4653 10.6996L14.9222 10.5585C13.7653 10.2293 12.632 9.80604 11.5695 9.2887C11.4042 9.19464 11.2153 9.19464 11.0264 9.26518C10.8375 9.31221 10.6958 9.45331 10.6014 9.61792C9.01945 12.8396 8.21667 16.3199 8.21667 19.9177C8.21667 23.5391 9.01945 26.9959 10.6014 30.2176C10.6958 30.3822 10.8375 30.5233 11.0264 30.5703C11.2153 30.6644 11.4042 30.6408 11.5695 30.5703C14.2139 29.2769 17.0708 28.6185 20.0458 28.6185C23.0208 28.6185 25.8778 29.2769 28.5222 30.5703C28.6167 30.6173 28.7347 30.6408 28.8292 30.6408C28.9 30.6408 28.9944 30.6173 29.0653 30.5938C29.2542 30.5233 29.3958 30.4057 29.4903 30.2411C31.0722 27.0194 31.875 23.5391 31.875 19.9413C31.875 16.3199 31.0722 12.8396 29.4903 9.61792ZM20.0458 8.67729C22.4069 8.67729 23.2097 10.5115 23.375 10.9818L22.3597 11.0994C20.825 11.2875 19.2903 11.2875 17.7556 11.0994L16.7167 10.9818C16.9056 10.535 17.7556 8.67729 20.0458 8.67729ZM30.4347 20.6467L30.3875 21.2816C30.2931 22.8337 30.0333 24.3622 29.6319 25.8437C29.3958 26.7137 29.0889 27.5603 28.7347 28.4069L28.4986 28.9712L27.9319 28.7361C25.4292 27.7014 22.7847 27.1841 20.0458 27.1841C17.307 27.1841 14.6625 27.7014 12.1597 28.7361L11.5931 28.9712L11.357 28.4069C11.0028 27.5838 10.7195 26.7137 10.4597 25.8437C10.0583 24.3622 9.79862 22.8337 9.70417 21.2816L9.65695 20.6467V19.2123L9.70417 18.5538C9.7514 17.7778 9.84584 17.0018 9.9639 16.2493C10.2472 14.6032 10.6958 12.9806 11.357 11.4521L11.5931 10.8878L12.1597 11.1229C14.6625 12.1576 17.307 12.6749 20.0458 12.6749C22.7847 12.6749 25.4528 12.1576 27.9319 11.1229L28.4986 10.8878L28.7347 11.4521C29.3722 13.0042 29.8444 14.6032 30.1278 16.2493C30.2458 17.0018 30.3403 17.7778 30.3875 18.5538L30.4347 19.2123V20.6467Z" fill="white"/>
</g>
<defs>
<clipPath id="clip0">
<rect width="170" height="40" fill="white"/>
</clipPath>
</defs>
</svg>
