<?xml version="1.0" standalone="no"?>
<!DOCTYPE svg PUBLIC "-//W3C//DTD SVG 20010904//EN"
 "http://www.w3.org/TR/2001/REC-SVG-20010904/DTD/svg10.dtd">
<svg version="1.0" xmlns="http://www.w3.org/2000/svg"
 width="2983.000000pt" height="4947.000000pt" viewBox="0 0 2983.000000 4947.000000"
 preserveAspectRatio="xMidYMid meet">

<g transform="translate(0.000000,4947.000000) scale(0.100000,-0.100000)"
fill="#326E76" stroke="none">
<path d="M0 34555 l0 -14915 14915 0 14915 0 0 14915 0 14915 -14915 0 -14915
0 0 -14915z m9105 8795 c506 -25 961 -107 1378 -249 227 -78 257 -91 257 -113
0 -11 -27 -187 -60 -391 -86 -532 -125 -769 -169 -1046 -22 -134 -42 -245 -44
-247 -2 -2 -48 14 -103 36 -284 116 -617 192 -968 221 -213 17 -629 7 -786
-20 -379 -65 -676 -198 -950 -427 -438 -364 -736 -988 -870 -1818 -62 -384
-80 -658 -87 -1308 l-6 -548 1462 0 1461 0 0 -840 0 -840 -1445 0 -1445 0 -2
-5202 -3 -5203 -1102 -3 -1103 -2 0 5205 0 5205 -835 0 -835 0 0 840 0 840
835 0 835 0 0 383 c0 935 67 1566 234 2229 149 590 361 1088 651 1528 369 561
866 1005 1465 1309 582 297 1231 451 1965 469 33 1 155 -3 270 -8z m3927 -899
c568 -123 961 -535 1060 -1115 28 -169 22 -440 -15 -596 -67 -282 -185 -499
-372 -685 -236 -236 -507 -358 -875 -396 -327 -33 -642 37 -914 205 -127 77
-295 242 -380 370 -386 584 -323 1369 149 1841 218 218 490 350 810 394 118
16 425 6 537 -18z m10528 -4752 c896 -55 1825 -274 2432 -572 l127 -62 -89
-300 c-50 -165 -112 -374 -140 -465 -27 -91 -99 -331 -160 -534 -60 -203 -112
-372 -115 -374 -3 -3 -67 24 -143 61 -568 272 -1193 433 -1892 487 -1454 111
-2629 -269 -3490 -1130 -442 -441 -761 -961 -991 -1612 -145 -412 -243 -901
-279 -1398 -13 -174 -13 -686 0 -860 79 -1074 426 -1991 1020 -2690 415 -489
928 -856 1530 -1093 275 -108 540 -182 831 -232 455 -77 1014 -85 1564 -24
636 71 1174 214 1809 483 60 25 113 43 116 39 4 -5 12 -33 19 -63 7 -30 86
-381 177 -780 91 -399 169 -742 174 -763 l8 -39 -86 -40 c-504 -231 -1269
-445 -1981 -554 -498 -75 -831 -99 -1401 -99 -510 0 -659 10 -1053 66 -2208
314 -3848 1625 -4570 3654 -358 1005 -484 2207 -351 3360 133 1165 539 2228
1183 3100 171 232 331 416 566 651 352 352 643 583 1060 840 1143 706 2596
1038 4125 943z m-9750 -6304 l0 -6045 -1100 0 -1100 0 0 6045 0 6045 1100 0
1100 0 0 -6045z"/>
<path d="M2954 17130 c-92 -13 -141 -27 -233 -72 -122 -58 -221 -159 -284
-288 -73 -148 -106 -307 -107 -507 l0 -102 -137 -3 -138 -3 -3 -137 -3 -138
141 0 140 0 0 -860 0 -860 180 0 180 0 0 860 0 860 238 2 237 3 3 138 3 138
-233 -1 c-128 0 -239 -1 -245 0 -28 0 -6 299 31 414 23 75 70 153 115 193 15
13 51 35 81 50 50 26 65 28 165 28 81 0 124 -5 163 -19 29 -10 55 -16 57 -14
11 11 47 260 38 269 -33 33 -277 64 -389 49z"/>
<path d="M10960 15625 l0 -1465 180 0 180 0 0 1465 0 1465 -180 0 -180 0 0
-1465z"/>
<path d="M17650 16495 c0 -327 -4 -595 -8 -595 -4 0 -15 12 -24 28 -56 94
-186 187 -327 234 -90 30 -105 32 -246 32 -201 1 -315 -30 -460 -125 -287
-187 -445 -516 -445 -927 0 -345 97 -603 300 -802 171 -167 413 -249 652 -220
243 29 432 146 555 342 17 26 33 45 37 41 3 -3 6 -41 6 -83 0 -42 3 -118 6
-168 l7 -92 160 0 160 0 -6 68 c-4 37 -7 696 -7 1465 l0 1397 -180 0 -180 0 0
-595z m-415 -590 c97 -26 157 -58 227 -124 80 -74 121 -136 156 -233 27 -73
27 -73 27 -378 l0 -305 -27 -73 c-38 -104 -83 -175 -155 -243 -220 -206 -565
-196 -768 23 -121 130 -181 298 -192 529 -15 322 94 593 294 731 117 80 295
110 438 73z"/>
<path d="M23920 16499 c0 -326 -1 -594 -4 -596 -2 -2 -13 12 -25 31 -38 61
-137 143 -224 186 -129 63 -188 75 -362 74 -136 0 -158 -3 -235 -28 -200 -66
-352 -180 -467 -351 -218 -324 -252 -836 -79 -1201 58 -122 117 -205 204 -285
159 -146 339 -215 557 -213 133 2 231 24 340 78 122 61 211 136 277 236 l53
81 7 -38 c4 -21 7 -76 8 -123 0 -47 3 -109 6 -137 l7 -53 160 0 159 0 -7 28
c-4 15 -10 674 -12 1465 l-5 1437 -179 0 -179 0 0 -591z m-355 -609 c166 -63
295 -207 339 -376 23 -89 23 -598 0 -687 -47 -182 -179 -330 -354 -396 -91
-34 -253 -36 -355 -4 -184 58 -326 225 -388 456 -19 71 -22 107 -21 272 1 224
14 292 91 444 80 159 201 261 363 306 82 22 247 15 325 -15z"/>
<path d="M12503 16577 l-163 -51 0 -183 0 -183 -155 0 -155 0 0 -140 0 -140
154 0 155 0 3 -652 c4 -638 4 -655 26 -733 56 -204 151 -305 337 -361 100 -30
301 -23 445 16 l40 11 -6 92 c-3 51 -7 112 -10 135 -5 40 -8 43 -27 37 -48
-15 -227 -18 -274 -5 -63 18 -124 79 -154 155 l-24 60 -3 622 -3 623 258 2
258 3 0 135 0 135 -257 3 -258 2 0 235 c0 182 -3 235 -12 234 -7 -1 -86 -24
-175 -52z"/>
<path d="M4295 16190 c-140 -19 -368 -92 -448 -145 l-25 -16 25 -77 c14 -42
32 -95 40 -118 l15 -41 61 33 c155 84 392 129 558 106 231 -33 359 -189 359
-438 l0 -64 -62 0 c-173 0 -441 -39 -592 -86 -351 -110 -546 -343 -546 -654 0
-273 172 -492 436 -556 88 -22 255 -22 351 -1 144 32 323 136 394 232 19 24
39 45 45 45 7 0 16 -43 23 -107 7 -60 15 -116 17 -125 5 -16 21 -18 164 -18
l159 0 -5 38 c-3 20 -8 51 -11 67 -3 17 -9 320 -13 675 l-7 645 -26 97 c-78
294 -269 465 -564 508 -79 11 -261 11 -348 0z m593 -1237 c-3 -228 -3 -228
-31 -283 -99 -191 -260 -290 -472 -290 -168 0 -271 67 -327 211 -16 45 -19 71
-16 154 3 90 7 106 37 161 39 73 75 110 156 159 118 71 313 112 538 114 l119
1 -4 -227z"/>
<path d="M6908 16190 c-551 -87 -888 -487 -888 -1053 0 -485 230 -833 640
-969 114 -38 211 -52 365 -51 159 0 295 21 430 64 136 43 130 32 99 174 -15
66 -30 123 -34 128 -3 4 -35 -3 -71 -17 -118 -44 -214 -60 -359 -60 -98 0
-153 4 -200 17 -309 84 -493 333 -507 687 -16 398 170 687 502 781 158 45 409
28 558 -38 34 -15 61 -22 66 -17 4 5 23 61 41 124 18 63 35 120 37 126 6 16
-79 50 -199 80 -84 21 -133 26 -263 29 -88 2 -186 0 -217 -5z"/>
<path d="M14395 16186 c-139 -24 -247 -56 -352 -106 l-102 -48 36 -109 c19
-59 39 -112 43 -116 4 -5 38 7 76 26 220 110 515 137 684 61 139 -62 220 -210
220 -400 l0 -64 -62 0 c-100 0 -283 -19 -402 -41 -149 -28 -253 -62 -371 -122
-191 -98 -311 -249 -351 -443 -69 -330 119 -625 441 -695 91 -20 255 -15 352
9 145 37 301 130 371 222 20 27 42 49 48 49 6 1 16 -40 23 -96 6 -54 14 -110
17 -125 l6 -28 159 0 159 0 -6 58 c-3 31 -8 64 -12 72 -3 8 -8 305 -12 660 -6
620 -7 648 -28 725 -45 165 -132 308 -235 383 -73 54 -121 77 -224 108 -74 22
-112 26 -243 30 -101 2 -183 -1 -235 -10z m613 -1234 l-3 -228 -35 -68 c-66
-130 -205 -237 -347 -266 -31 -7 -98 -10 -147 -8 -111 5 -171 32 -238 107 -60
66 -82 145 -76 263 14 277 264 421 736 427 l113 1 -3 -228z"/>
<path d="M19502 16175 c-356 -96 -598 -380 -675 -791 -75 -394 23 -776 254
-1001 107 -104 201 -161 344 -210 211 -72 553 -71 822 2 81 22 192 60 201 69
2 3 -58 239 -63 244 -2 2 -46 -10 -97 -27 -148 -47 -215 -56 -423 -56 -171 0
-198 2 -265 23 -266 83 -424 292 -447 591 l-6 84 701 -6 701 -6 7 36 c4 20 4
104 1 187 -10 290 -99 519 -262 682 -79 78 -157 125 -276 166 -89 30 -103 32
-259 35 -150 3 -173 1 -258 -22z m330 -236 c142 -30 246 -114 313 -253 46 -97
63 -162 67 -266 l3 -65 -524 -3 c-292 -1 -529 2 -534 7 -13 13 28 172 66 254
79 169 209 285 362 323 64 16 179 17 247 3z"/>
<path d="M25785 16176 c-172 -45 -306 -125 -423 -252 -285 -309 -367 -873
-187 -1278 111 -249 329 -427 610 -497 107 -27 329 -36 488 -19 197 20 464 97
452 129 -3 8 -18 62 -32 120 -14 58 -27 107 -28 109 -2 2 -47 -10 -101 -27
-138 -43 -266 -61 -427 -61 -167 0 -249 16 -367 72 -155 74 -271 220 -315 395
-19 74 -36 214 -28 227 4 6 278 7 700 3 645 -5 695 -4 701 11 15 36 7 315 -11
397 -70 310 -206 509 -422 616 -124 61 -212 79 -379 79 -114 -1 -158 -5 -231
-24z m386 -255 c195 -74 306 -252 321 -516 l2 -50 -527 -3 c-439 -2 -528 0
-533 12 -3 7 2 44 11 81 59 256 207 434 405 488 88 23 242 18 321 -12z"/>
<path d="M8337 16153 c-11 -11 -8 -1178 4 -1303 19 -217 77 -385 173 -508 77
-98 203 -177 333 -209 99 -24 276 -21 376 6 160 42 319 149 411 274 26 37 52
67 56 67 4 0 11 -71 16 -157 l9 -158 158 -3 159 -3 -6 58 c-3 32 -8 482 -12
1001 l-7 942 -173 0 -173 0 -3 -667 c-3 -665 -4 -668 -26 -728 -80 -213 -277
-355 -492 -355 -247 0 -393 153 -436 458 -10 73 -14 243 -14 695 l0 597 -173
0 c-96 0 -177 -3 -180 -7z"/>
<path d="M7225 11544 c-358 -80 -555 -388 -555 -866 l0 -98 -140 0 -140 0 0
-135 0 -135 140 0 140 0 0 -865 0 -865 178 2 177 3 3 863 2 862 240 0 240 0 0
135 0 135 -242 2 -243 3 3 135 c2 74 10 169 18 210 32 160 116 277 227 319 75
28 214 29 309 3 l66 -19 11 61 c27 161 34 207 28 212 -3 4 -37 15 -74 26 -94
27 -294 33 -388 12z"/>
<path d="M2409 11407 c-87 -24 -136 -77 -160 -170 -24 -98 28 -214 114 -256
83 -40 206 -24 271 37 80 75 89 225 20 318 -46 62 -159 95 -245 71z"/>
<path d="M17845 11363 c-20 -32 -97 -157 -171 -278 -75 -121 -140 -228 -145
-237 -9 -17 -1 -18 114 -18 l123 0 245 286 c134 158 246 290 247 295 2 5 -82
9 -187 9 l-191 0 -35 -57z"/>
<path d="M21586 11404 c-67 -21 -99 -48 -131 -106 -65 -119 -6 -287 114 -327
98 -32 225 3 274 78 126 190 -43 423 -257 355z"/>
<path d="M19955 11044 c-22 -7 -100 -32 -173 -54 l-133 -42 1 -171 c1 -95 1
-178 1 -184 -1 -10 -39 -13 -156 -13 l-155 0 0 -135 0 -135 155 0 c117 0 155
-3 155 -12 0 -7 1 -292 3 -633 4 -590 5 -625 25 -715 51 -226 155 -341 353
-391 70 -18 102 -21 204 -16 66 3 153 13 193 23 l72 18 0 55 c0 31 -3 93 -6
137 l-7 81 -36 -8 c-20 -5 -85 -9 -146 -9 -129 0 -173 15 -224 76 -17 22 -42
70 -54 109 -22 69 -22 78 -22 675 l0 605 258 3 257 2 0 135 0 135 -257 2 -258
3 -5 236 -5 236 -40 -13z"/>
<path d="M4700 10620 c-202 -20 -414 -143 -525 -305 -21 -30 -41 -55 -45 -55
-4 0 -10 60 -14 133 -4 72 -9 144 -12 160 l-6 27 -155 0 -156 0 6 -97 c4 -54
7 -504 7 -1000 l0 -903 180 0 180 0 0 628 c0 357 4 653 10 687 13 79 78 208
136 268 111 117 223 167 373 167 149 0 241 -37 324 -130 51 -56 86 -123 113
-215 16 -54 18 -125 23 -730 l6 -670 178 -3 178 -2 -3 702 -4 703 -27 99 c-49
174 -122 296 -232 387 -141 117 -330 170 -535 149z"/>
<path d="M9060 10619 c-153 -15 -325 -77 -450 -162 -67 -46 -176 -154 -226
-224 -91 -126 -162 -316 -183 -488 -62 -509 136 -926 530 -1114 142 -68 227
-86 419 -85 146 1 176 4 264 27 438 117 701 469 723 967 12 271 -56 525 -192
715 -187 263 -522 401 -885 364z m294 -292 c143 -53 237 -142 316 -302 72
-146 93 -244 94 -435 0 -128 -3 -170 -22 -243 -86 -342 -299 -537 -586 -537
-228 0 -399 115 -511 345 -69 140 -89 238 -88 430 0 140 4 173 26 260 45 170
122 302 229 392 52 43 165 98 234 112 83 17 229 6 308 -22z"/>
<path d="M11953 10620 c-110 -20 -211 -71 -300 -152 -53 -49 -133 -167 -159
-233 -9 -25 -20 -45 -24 -45 -8 0 -20 148 -20 249 0 36 -3 83 -6 104 l-7 37
-155 0 -155 0 9 -47 c5 -27 9 -475 9 -998 l0 -950 177 -3 177 -2 3 617 c4 547
6 625 21 678 78 271 277 428 525 412 l82 -5 0 169 c0 158 -1 169 -19 169 -10
0 -38 2 -62 4 -24 3 -67 1 -96 -4z"/>
<path d="M13895 10619 c-90 -13 -203 -54 -271 -99 -70 -45 -182 -159 -216
-220 -13 -22 -28 -40 -34 -40 -8 0 -14 51 -19 160 l-7 160 -160 0 c-149 0
-160 -1 -152 -17 4 -10 10 -459 13 -998 l6 -980 173 -3 172 -2 0 637 c0 527 3
649 15 701 37 155 150 304 281 369 62 30 88 37 155 41 278 16 429 -156 453
-518 3 -41 5 -335 6 -652 l0 -578 170 0 169 0 3 668 c4 645 4 669 25 736 41
132 148 256 273 315 50 23 67 26 175 26 111 0 124 -2 177 -28 79 -39 157 -126
193 -213 58 -147 58 -143 62 -851 l4 -653 175 0 174 0 0 623 c0 728 -7 823
-75 1003 -51 134 -158 270 -262 331 -201 118 -488 116 -692 -4 -82 -49 -205
-164 -256 -242 -22 -33 -43 -61 -47 -61 -3 0 -19 28 -35 63 -110 234 -370 365
-648 326z"/>
<path d="M17550 10619 c-52 -4 -148 -21 -212 -38 -124 -31 -308 -111 -308
-133 0 -23 72 -229 78 -226 184 97 291 128 473 135 153 6 210 -3 300 -48 124
-62 196 -195 201 -374 l3 -80 -152 -7 c-566 -26 -916 -209 -1019 -532 -37
-117 -42 -229 -16 -335 31 -121 67 -186 148 -268 124 -126 273 -179 479 -170
161 7 270 41 395 122 65 42 139 110 168 153 8 13 19 19 23 15 5 -5 16 -60 24
-123 9 -63 19 -118 21 -122 3 -4 75 -8 161 -8 l155 0 -6 53 c-17 140 -26 404
-26 838 0 516 -5 578 -56 719 -62 174 -169 293 -327 365 -120 55 -320 81 -507
64z m548 -1169 c5 -289 -19 -371 -143 -495 -80 -80 -150 -119 -258 -142 -176
-37 -332 16 -404 136 -91 152 -61 369 66 483 126 113 381 180 666 174 l70 -1
3 -155z"/>
<path d="M23785 10619 c-251 -23 -481 -125 -645 -288 -175 -173 -281 -423
-296 -699 -26 -455 170 -825 524 -994 46 -22 127 -51 180 -65 88 -24 114 -26
292 -27 217 0 321 16 483 75 l84 30 -31 135 c-25 111 -33 133 -46 128 -134
-58 -265 -84 -425 -84 -293 0 -503 129 -626 385 -53 110 -72 203 -72 360 -1
197 37 338 130 477 91 138 241 239 405 272 158 32 386 13 522 -45 39 -16 70
-28 71 -26 3 5 75 255 75 261 0 13 -86 48 -180 72 -86 21 -288 47 -340 42 -8
0 -55 -4 -105 -9z"/>
<path d="M25850 10614 c-112 -14 -199 -35 -295 -71 -85 -31 -185 -81 -185 -91
0 -8 71 -225 75 -230 2 -2 27 11 57 27 137 78 305 115 492 109 123 -3 135 -6
201 -36 150 -71 225 -196 228 -385 l2 -82 -152 -7 c-585 -26 -938 -221 -1029
-568 -10 -39 -17 -103 -17 -160 -1 -169 50 -297 163 -410 122 -123 275 -176
480 -167 130 6 213 27 324 82 80 39 187 124 226 179 39 56 35 64 63 -134 l12
-85 159 -3 158 -3 -6 43 c-4 24 -11 336 -16 693 -8 629 -11 686 -44 813 -57
225 -208 388 -421 455 -128 40 -314 53 -475 31z m588 -1179 c3 -205 -8 -289
-49 -366 -35 -65 -131 -162 -200 -202 -55 -33 -184 -67 -250 -67 -62 0 -144
18 -189 40 -55 28 -118 99 -142 160 -32 80 -31 222 2 305 31 79 111 159 205
204 132 63 346 101 550 97 l70 -1 3 -170z"/>
<path d="M2300 9580 l0 -1000 175 0 175 0 0 1000 0 1000 -175 0 -175 0 0
-1000z"/>
<path d="M21480 9580 l0 -1000 178 2 177 3 3 998 2 997 -180 0 -180 0 0 -1000z"/>
<path d="M3660 5343 l-1 -598 -26 35 c-89 117 -210 199 -358 242 -115 33 -335
33 -448 0 -397 -114 -643 -467 -673 -963 -20 -342 87 -658 293 -861 108 -107
217 -171 358 -207 109 -29 300 -29 411 -1 190 49 351 165 440 316 31 52 44 56
45 12 1 -18 4 -94 8 -168 l6 -135 160 0 c138 0 159 2 155 15 -3 8 -6 666 -8
1463 l-3 1447 -180 0 -179 0 0 -597z m-429 -583 c143 -27 300 -147 367 -282
57 -117 64 -168 60 -487 -3 -282 -4 -287 -30 -360 -51 -140 -146 -251 -270
-316 -209 -110 -468 -74 -632 89 -140 137 -209 334 -209 596 0 459 234 765
589 769 39 1 96 -3 125 -9z"/>
<path d="M23295 5713 c-19 -111 -43 -138 -119 -137 -43 0 -72 11 -196 76 -108
56 -160 78 -201 83 -170 21 -286 -105 -306 -332 l-6 -73 90 0 90 0 12 61 c8
40 21 70 41 92 46 51 89 44 260 -45 133 -68 145 -73 217 -76 42 -3 93 1 115 7
104 32 178 163 178 319 l0 62 -85 0 -84 0 -6 -37z"/>
<path d="M6095 5043 c-73 -9 -195 -37 -265 -60 -90 -30 -215 -86 -224 -101 -5
-9 9 -58 60 -200 l16 -42 26 18 c148 101 448 157 633 118 203 -43 318 -198
319 -427 l0 -66 -132 -7 c-442 -24 -726 -120 -902 -306 -76 -80 -119 -160
-147 -268 -36 -143 -17 -323 48 -445 42 -78 155 -188 233 -225 101 -48 173
-62 310 -62 142 0 244 22 349 74 88 45 181 116 222 171 19 24 39 45 45 45 7 0
16 -43 23 -107 7 -60 15 -116 17 -125 5 -16 22 -18 165 -18 148 0 160 1 155
18 -16 50 -26 350 -26 797 -1 611 -9 690 -90 860 -92 193 -233 298 -465 346
-84 18 -279 24 -370 12z m573 -1235 l-3 -223 -32 -68 c-64 -135 -206 -247
-350 -277 -88 -19 -227 -9 -288 20 -99 48 -159 137 -174 256 -39 327 219 507
732 513 l118 1 -3 -222z"/>
<path d="M11177 5035 c-438 -74 -748 -367 -840 -795 -27 -127 -29 -366 -4
-494 81 -405 336 -670 726 -757 110 -24 367 -26 497 -4 108 19 213 47 275 73
l46 20 -29 129 c-16 70 -31 130 -33 132 -2 2 -33 -8 -68 -22 -144 -58 -353
-80 -507 -53 -163 28 -297 104 -397 225 -113 137 -166 302 -166 516 0 158 23
266 85 394 34 69 58 103 127 172 93 93 178 143 296 173 152 38 352 28 505 -25
47 -16 92 -32 101 -35 12 -4 23 20 54 126 22 77 34 135 29 140 -17 17 -190 68
-283 84 -112 19 -304 19 -414 1z"/>
<path d="M13965 5043 c-440 -70 -748 -380 -820 -828 -19 -115 -19 -325 0 -440
15 -96 58 -232 95 -305 91 -180 256 -340 435 -421 139 -63 201 -74 410 -74
227 1 289 14 460 100 194 97 312 215 410 410 182 361 157 858 -58 1175 -40 59
-150 173 -207 215 -72 53 -200 113 -301 141 -78 21 -120 26 -244 29 -82 2
-163 1 -180 -2z m296 -281 c164 -46 297 -179 376 -374 67 -165 85 -409 45
-603 -58 -279 -250 -496 -480 -544 -248 -51 -493 80 -616 331 -64 129 -87 224
-93 388 -11 275 56 491 203 648 113 122 225 170 399 171 69 1 121 -5 166 -17z"/>
<path d="M17290 5034 c-174 -46 -334 -188 -404 -359 -11 -29 -25 -54 -31 -56
-6 -3 -13 65 -18 181 -4 102 -10 191 -12 198 -3 9 -44 12 -156 12 l-152 0 6
-172 c4 -95 7 -545 7 -1001 l0 -827 178 2 177 3 5 630 c5 626 5 630 28 695 35
97 94 191 158 249 100 91 189 123 342 122 l92 -1 0 164 c0 140 -2 165 -16 170
-28 11 -148 5 -204 -10z"/>
<path d="M22946 5034 c-191 -42 -370 -161 -461 -306 -17 -27 -33 -48 -36 -48
-4 0 -9 48 -13 108 -4 59 -9 133 -13 165 l-6 57 -155 0 -155 0 6 -122 c4 -66
7 -516 7 -1000 l0 -878 180 0 180 0 0 638 c0 702 1 708 62 826 45 86 156 194
240 235 88 43 191 59 293 44 178 -25 297 -137 356 -333 23 -74 23 -81 27 -742
l3 -668 180 0 180 0 -4 693 c-3 664 -4 695 -25 779 -42 172 -116 306 -222 401
-67 60 -136 99 -235 133 -102 34 -280 43 -389 18z"/>
<path d="M25885 5044 c-90 -13 -237 -49 -306 -74 -88 -33 -175 -75 -184 -89
-4 -8 60 -215 71 -230 2 -2 41 15 87 38 133 66 255 93 422 95 123 1 148 -2
208 -22 165 -57 249 -182 264 -393 l6 -86 -134 -7 c-508 -27 -821 -153 -977
-394 -62 -97 -84 -168 -89 -302 -6 -141 6 -205 57 -308 69 -137 188 -234 342
-279 119 -34 301 -33 424 3 133 38 215 86 313 182 46 45 87 80 89 77 3 -3 12
-58 21 -123 l16 -117 161 -3 160 -2 -8 52 c-5 29 -13 346 -18 703 -8 671 -9
681 -55 830 -66 214 -228 367 -452 426 -59 16 -116 22 -233 24 -85 2 -168 1
-185 -1z m575 -1207 c0 -212 -10 -277 -57 -357 -91 -154 -261 -250 -446 -251
-103 0 -172 20 -234 69 -64 51 -101 121 -113 215 -33 262 122 431 452 491 112
21 134 23 276 24 l122 2 0 -193z"/>
<path d="M18844 4995 c-3 -8 -4 -310 -1 -672 5 -700 8 -738 57 -891 52 -156
152 -295 268 -370 99 -63 179 -84 337 -89 107 -4 156 -1 209 11 178 42 337
147 437 289 26 37 49 64 52 60 3 -4 8 -71 11 -148 4 -77 10 -148 12 -157 5
-16 21 -18 157 -18 l152 0 -3 987 c-1 544 -4 994 -7 1001 -3 9 -48 12 -179 12
l-175 0 -3 -667 c-4 -748 0 -712 -78 -831 -128 -199 -352 -292 -565 -237 -136
36 -232 137 -279 295 -41 137 -46 220 -46 843 l0 597 -175 0 c-145 0 -177 -3
-181 -15z"/>
</g>
</svg>
