<?xml version="1.0" encoding="utf-8"?>
<svg viewBox="82.1962 226.37 432.3938 163.86" xmlns="http://www.w3.org/2000/svg">
  <defs>
    <style type="text/css">
	.st0{fill:#010202;}
	.st1{fill:url(#SVGID_1_);}
	.st2{fill:url(#SVGID_00000092414137423469020950000001423833829170352056_);}
	.st3{fill:url(#SVGID_00000108311440492663984180000012545641824920319371_);}
	.st4{fill:url(#SVGID_00000179627503914262012880000008296226268841760679_);}
	.st5{fill:url(#SVGID_00000044148669757661503460000006120648003809140371_);}
	.st6{fill:url(#SVGID_00000062899732635890822880000008795902259205412744_);}
	.st7{fill:url(#SVGID_00000039110463772241337300000004377009827513322884_);}
	.st8{fill:url(#SVGID_00000005959893357982474260000003809215178969666692_);}
	.st9{fill:url(#SVGID_00000057126573779359299840000000475706189194548389_);}
	.st10{fill:url(#SVGID_00000165951311037012494000000010558684802668419734_);}
	.st11{fill:url(#SVGID_00000075137964877461222530000014421261494768348548_);}
	.st12{fill:url(#SVGID_00000054234466888669886210000007046259051846572930_);}
	.st13{fill:url(#SVGID_00000070115017598317482810000005295544971889677220_);}
	.st14{fill:url(#SVGID_00000100370968524481769880000008410238628821643691_);}
	.st15{fill:url(#SVGID_00000168081325280880355900000009923698443536799913_);}
	.st16{fill:#2D2E83;}
	.st17{fill:url(#SVGID_00000088107627819572533560000018179987969510068362_);}
	.st18{fill:url(#SVGID_00000178163567385154045840000010565070367749169809_);}
	.st19{fill:url(#SVGID_00000183927095570477271080000013700104777442995848_);}
	.st20{fill:#FFFFFF;}
	.st21{fill:url(#SVGID_00000129200390819818305290000010840663433113301133_);}
	.st22{fill:url(#SVGID_00000032606741268602531780000014585465588371397278_);}
	.st23{fill:url(#SVGID_00000178177069514815331210000012351224255371357599_);}
	.st24{fill:url(#SVGID_00000176737861643555311210000010010758176698003892_);}
	.st25{fill:url(#SVGID_00000054255188760592584710000013660630261964671366_);}
	.st26{fill:url(#SVGID_00000176759739884874734970000001392344969659070346_);}
	.st27{fill:url(#SVGID_00000103979635652324664690000012319268569386950840_);}
	.st28{fill:url(#SVGID_00000096772308376642287870000006837924127428605858_);}
	.st29{fill:url(#SVGID_00000092424126344457862090000011121389470650699917_);}
	.st30{fill:url(#SVGID_00000100340454807588308910000002314577911755903648_);}
	.st31{fill:url(#SVGID_00000156581423154725264810000001383535165535185044_);}
	.st32{fill:url(#SVGID_00000143613903815721348070000014789833729998694289_);}
	.st33{fill:url(#SVGID_00000158707008627068418110000009397253625335315628_);}
	.st34{fill:url(#SVGID_00000130630119707365961280000000196270235570047638_);}
	.st35{fill:url(#SVGID_00000082369688492553183690000014063918121498961290_);}
	.st36{fill:url(#SVGID_00000077313283998573092560000013548234167913242250_);}
	.st37{fill:url(#SVGID_00000070100030976265315380000011626185951473154689_);}
	.st38{fill:url(#SVGID_00000137092860625135725180000014597111762757196478_);}
	.st39{fill:url(#SVGID_00000183952488973835840660000012751543497068958390_);}
	.st40{fill:url(#SVGID_00000181780977245459715960000013615346796692201116_);}
	.st41{fill:url(#SVGID_00000034800208380144541750000016997811425985541039_);}
	.st42{fill:url(#SVGID_00000181083713878674795130000000483706496906400694_);}
	.st43{fill:url(#SVGID_00000014634845617386523420000009366471761864766884_);}
	.st44{fill:url(#SVGID_00000000918873867445564850000005945805363583262884_);}
	.st45{fill:url(#SVGID_00000064336200634528808560000011378883309866301614_);}
	.st46{fill:url(#SVGID_00000047742423515538511650000015274915914646700672_);}
	.st47{fill:url(#SVGID_00000119812651760907153800000014000115981406359192_);}
	.st48{fill:url(#SVGID_00000039836499116230252500000001720292097535821241_);}
	.st49{fill:url(#SVGID_00000103965693902533272770000010953240643270252417_);}
	.st50{fill:url(#SVGID_00000177476130834819384290000017331377888995136190_);}
	.st51{fill:url(#SVGID_00000077312782410853489010000014044970089981974437_);}
	.st52{fill:url(#SVGID_00000152957364738598597440000010786568772080304816_);}
	.st53{fill:url(#SVGID_00000143579127382482049000000008066125348399823013_);}
	.st54{fill:url(#SVGID_00000033351132990804031850000004593255905023234725_);}
	.st55{fill:url(#SVGID_00000105405964353321258340000010604901909118216101_);}
	.st56{fill:url(#SVGID_00000114758043733848276450000013648238734391614111_);}
	.st57{fill:url(#SVGID_00000002363518696163018040000013674584285542291647_);}
	.st58{fill:url(#SVGID_00000116237499752249458980000000517614891938349748_);}
	.st59{fill:url(#SVGID_00000032638176564158023140000011112457171902860418_);}
	.st60{fill:url(#SVGID_00000142147397225157400580000016273518594786182073_);}
	.st61{fill:url(#SVGID_00000087402591467708520710000018399627203159096708_);}
	.st62{fill:url(#SVGID_00000137849367577572166550000007136631259342858909_);}
	.st63{fill:url(#SVGID_00000085939837523276980010000003033152290544731530_);}
	.st64{fill:url(#SVGID_00000107563866449945199010000003358584649624220582_);}
	.st65{fill:url(#SVGID_00000109002992050665347440000009845854295291539888_);}
	.st66{fill:url(#SVGID_00000163757084281933379250000015966401266064863876_);}
	.st67{fill:url(#SVGID_00000042712514181922718480000006471382550792896426_);}
	.st68{fill:url(#SVGID_00000094617607874530837020000016831628174614837925_);}
	.st69{fill:url(#SVGID_00000070825290680656070050000017301064741864405145_);}
	.st70{fill:url(#SVGID_00000066474619289756991450000013444517115221618058_);}
	.st71{fill:url(#SVGID_00000041979671329820027210000004441635235575173563_);}
	.st72{fill:url(#SVGID_00000028304946869609068840000016009712183176500159_);}
	.st73{fill:url(#SVGID_00000152980597443995276600000013641849911533101728_);}
	.st74{fill:url(#SVGID_00000169547143926969413380000016361474844008146320_);}
	.st75{fill:url(#SVGID_00000126323956349764255550000001710270677593216188_);}
	.st76{fill:url(#SVGID_00000082336379775418484960000007972579815089681077_);}
	.st77{fill:url(#SVGID_00000120526707490668473610000003142626109478311089_);}
	.st78{fill:url(#SVGID_00000162310692005815581540000018385603944231861668_);}
	.st79{fill:url(#SVGID_00000092429870860324981940000012701154721934319268_);}
	.st80{fill:url(#SVGID_00000021832210597945019720000006421218079039721643_);}
	.st81{fill:url(#SVGID_00000016040457001340035260000014088981104850560901_);}
	.st82{fill:url(#SVGID_00000080196722902399792680000008566052583077918363_);}
	.st83{fill:url(#SVGID_00000029726792858743561440000012089218308739783102_);}
	.st84{fill:url(#SVGID_00000075854056528033729530000001853429291787029436_);}
	.st85{fill:url(#SVGID_00000140699937583001444370000012843361415684852153_);}
	.st86{fill:url(#SVGID_00000075153980498709063740000005566283857003532674_);}
	.st87{fill:url(#SVGID_00000119815791888360026810000016196002763015219098_);}
	.st88{fill:url(#SVGID_00000039111220111976570610000015656610736541787528_);}
	.st89{fill:url(#SVGID_00000070801273950269128520000007409681827403307184_);}
	.st90{fill:url(#SVGID_00000008837249648331871700000009524880843582308503_);}
	.st91{fill:url(#SVGID_00000157291968601612044310000014125423816510355127_);}
	.st92{fill:url(#SVGID_00000090268526373314212160000001845214459771822506_);}
	.st93{fill:url(#SVGID_00000042721044591745370630000011063556664826244758_);}
	.st94{fill:url(#SVGID_00000129171848329788197910000005368232357918962589_);}
	.st95{fill:url(#SVGID_00000176724580873172836530000015043105896628300207_);}
	.st96{fill:url(#SVGID_00000155868011033838832520000004852652227739537844_);}
	.st97{fill:url(#SVGID_00000039828153347529662640000010921145183562598815_);}
	.st98{fill:url(#SVGID_00000008131878821151914030000004351774486975290037_);}
	.st99{fill:url(#SVGID_00000147190208627883602220000009604567984925914269_);}
	.st100{fill:url(#SVGID_00000061439628336350398990000008008247905766675354_);}
	.st101{fill:url(#SVGID_00000134963870511565184530000001084388277151106949_);}
	.st102{fill:url(#SVGID_00000000934480436159694700000005234424275359380366_);}
	.st103{fill:url(#SVGID_00000120517758478958437290000018363871167058723745_);}
	.st104{fill:url(#SVGID_00000009567262613714729790000005470141480479430279_);}
	.st105{fill:url(#SVGID_00000170976669725733527080000005864629067358024868_);}
	.st106{fill:url(#SVGID_00000094578136488123703960000010675519602974434702_);}
	.st107{fill:url(#SVGID_00000037693968086014426940000015630965356383444404_);}
	.st108{fill:url(#SVGID_00000094611304982701072780000009064714866841392823_);}
	.st109{fill:url(#SVGID_00000091733322310048870100000017537767355092366263_);}
	.st110{fill:url(#SVGID_00000150072522152319586410000003376106352624611475_);}
	.st111{fill:url(#SVGID_00000116214219117269244780000018297371208806053004_);}
	.st112{fill:url(#SVGID_00000023967357664665077180000003074050038931029169_);}
	.st113{fill:url(#SVGID_00000108273565153436890070000000612259147905940869_);}
	.st114{fill:url(#SVGID_00000106136043899058233210000013573814985562281388_);}
	.st115{fill:url(#SVGID_00000083803631316450197970000015470919018424715689_);}
	.st116{fill:url(#SVGID_00000044175461338279263940000015707116853565367213_);}
	.st117{fill:url(#SVGID_00000085212128673136378860000004554418768433324457_);}
	.st118{fill:url(#SVGID_00000116916728065663906970000009958389758833803406_);}
	.st119{fill:url(#SVGID_00000153685936975788513770000002215058132970252183_);}
	.st120{fill:url(#SVGID_00000172415008213412322010000011637112123826093245_);}
	.st121{fill:url(#SVGID_00000031895692803525990540000016332341581577047168_);}
	.st122{fill:url(#SVGID_00000004529047219740304370000018154501694786012861_);}
	.st123{fill:url(#SVGID_00000060024519819534531950000010454670361798502809_);}
	.st124{fill:url(#SVGID_00000134210478222557897820000015123864626685042092_);}
	.st125{fill:url(#SVGID_00000085937685053939425270000004463405409844140442_);}
</style>
  </defs>
  <g transform="matrix(0.9999999999999999, 0, 0, 0.9999999999999999, -2.842170943040401e-14, 0)">
    <path class="st16" d="M330.61,230.69v67.58c0,1.18-0.31,2.08-0.94,2.73c-0.63,0.65-1.55,0.97-2.76,0.97 c-1.17,0-2.08-0.32-2.73-0.97c-0.64-0.64-0.97-1.55-0.97-2.73v-29.9h-32.34v29.9c0,1.21-0.32,2.13-0.97,2.76 c-0.64,0.63-1.57,0.94-2.78,0.94c-1.18,0-2.09-0.32-2.73-0.97c-0.64-0.64-0.97-1.55-0.97-2.73v-67.58c0-1.17,0.31-2.08,0.94-2.7 c0.62-0.63,1.54-0.94,2.76-0.94c1.21,0,2.14,0.31,2.78,0.94c0.64,0.62,0.97,1.53,0.97,2.7v30.18h32.34v-30.18 c0-1.17,0.32-2.08,0.97-2.7c0.64-0.63,1.57-0.94,2.79-0.94C329.4,227.06,330.61,228.27,330.61,230.69z"/>
    <path class="st16" d="M399.1,298.62c0,0.95-0.33,1.74-0.99,2.39c-0.66,0.65-1.62,0.97-2.87,0.97c-0.76,0-1.43-0.16-2.02-0.48 c-0.59-0.32-0.99-0.84-1.22-1.56l-6.14-18.7h-29.1l-6.14,18.7c-0.19,0.68-0.6,1.19-1.22,1.53c-0.63,0.34-1.32,0.51-2.08,0.51 c-1.1,0-2-0.32-2.7-0.97c-0.7-0.64-1.05-1.46-1.05-2.44c0-0.61,0.09-1.14,0.28-1.59l23.93-67.86c0.53-1.36,1.72-2.05,3.58-2.05 c0.87,0,1.61,0.17,2.22,0.51c0.6,0.34,1.04,0.83,1.31,1.48l23.87,67.92C398.98,297.54,399.1,298.09,399.1,298.62z M383.52,274.06 l-12.22-37.29l-12.22,37.29H383.52z"/>
    <path class="st16" d="M441.81,300.86c-2.94,1.19-6.53,1.79-10.77,1.79c-4.47,0-8.54-1.11-12.19-3.32 c-3.66-2.22-6.55-5.21-8.67-8.98c-2.12-3.77-3.18-7.89-3.18-12.36V251.1c0-4.51,1.04-8.66,3.13-12.45 c2.08-3.79,4.95-6.78,8.61-8.98c3.66-2.2,7.76-3.3,12.31-3.3c4.02,0,7.49,0.55,10.43,1.65c2.94,1.1,5.92,2.84,8.95,5.23 c1.02,0.76,1.53,1.71,1.53,2.84c0,0.99-0.36,1.86-1.08,2.61c-0.72,0.76-1.55,1.14-2.5,1.14c-0.8,0-1.76-0.38-2.9-1.14 c-2.31-1.67-4.54-2.9-6.68-3.69c-2.14-0.8-4.77-1.19-7.87-1.19c-3.03,0-5.8,0.74-8.3,2.22c-2.5,1.48-4.49,3.55-5.97,6.22 c-1.48,2.67-2.22,5.71-2.22,9.12v26.31c0,3.41,0.75,6.44,2.24,9.1c1.5,2.65,3.51,4.72,6.05,6.19c2.54,1.48,5.3,2.22,8.3,2.22 c2.99,0,5.59-0.4,7.79-1.19c2.2-0.8,4.41-2.03,6.65-3.69c0.61-0.38,1.13-0.66,1.56-0.85c0.44-0.19,0.88-0.28,1.34-0.28 c0.95,0,1.78,0.38,2.5,1.14c0.72,0.76,1.08,1.63,1.08,2.61c0,1.14-0.51,2.09-1.53,2.84C447.62,297.97,444.75,299.67,441.81,300.86z "/>
    <path class="st16" d="M514.59,298.73c0,0.91-0.34,1.68-1.02,2.3c-0.68,0.63-1.55,0.94-2.62,0.94c-0.87,0-1.58-0.17-2.13-0.51 c-0.55-0.34-1.05-0.91-1.51-1.7l-21.77-36.55l-10.46,12.33v22.96c0,1.18-0.32,2.08-0.97,2.7c-0.64,0.63-1.57,0.94-2.78,0.94 c-1.21,0-2.14-0.31-2.79-0.94c-0.64-0.62-0.97-1.52-0.97-2.7v-67.86c0-1.18,0.32-2.08,0.97-2.7c0.64-0.63,1.57-0.94,2.79-0.94 c1.21,0,2.14,0.31,2.78,0.94c0.64,0.63,0.97,1.53,0.97,2.7v33.59l30.58-36.32c0.68-0.72,1.5-1.08,2.44-1.08 c1.21,0,2.16,0.34,2.84,1.02c0.68,0.68,1.02,1.52,1.02,2.5c0,1.14-0.38,2.1-1.14,2.9l-20.23,23.93l23.36,39.5 C514.38,297.4,514.59,298.09,514.59,298.73z"/>
  </g>
  <g transform="matrix(0.9999999999999999, 0, 0, 0.9999999999999999, -2.842170943040401e-14, 0)">
    <linearGradient id="SVGID_1_" gradientUnits="userSpaceOnUse" x1="312.4044" y1="310.6783" x2="312.4044" y2="388.55">
      <stop offset="0" style="stop-color:#914694"/>
      <stop offset="0" style="stop-color:#954694"/>
      <stop offset="0" style="stop-color:#974694"/>
      <stop offset="0.1676" style="stop-color:#944593"/>
      <stop offset="0.3446" style="stop-color:#8B4292"/>
      <stop offset="0.5262" style="stop-color:#7A3D8F"/>
      <stop offset="0.7106" style="stop-color:#62378B"/>
      <stop offset="0.8957" style="stop-color:#443286"/>
      <stop offset="1" style="stop-color:#2D2E83"/>
      <stop offset="1" style="stop-color:#000000"/>
    </linearGradient>
    <path class="st1" d="M340.55,362.27c-0.08,9.98-4.01,18.14-13.13,23.01c-16.55,8.87-35.8-1.28-38.32-18.94 c-0.24-1.67-0.28-3.33-0.28-5v-31.58c-2.8-1.89-4.63-5.05-4.63-8.63c0-5.78,4.76-10.46,10.63-10.46c5.85,0,10.61,4.68,10.61,10.46 c0,3.72-1.98,6.98-4.97,8.83c-0.02,11.03-0.02,22.1,0.02,33.14c0.02,5.29,2.24,9.59,7.04,12.2c7.66,4.17,19.81,1.35,21.24-10.46 c0.15-1.24,0.23-2.5,0.23-3.74v-43.49c0-4.26,1.88-6.11,6.17-6.11c2.65,0,4.7,1.61,5.19,4.18c0.17,0.81,0.23,1.67,0.23,2.48 C340.59,332.87,340.67,347.57,340.55,362.27z"/>
    <g>
      <linearGradient id="SVGID_00000155113957739982618610000012112066614090799515_" gradientUnits="userSpaceOnUse" x1="380.0399" y1="311.5462" x2="380.0399" y2="387.7166">
        <stop offset="0" style="stop-color:#914694"/>
        <stop offset="0" style="stop-color:#954694"/>
        <stop offset="0" style="stop-color:#974694"/>
        <stop offset="0.1676" style="stop-color:#944593"/>
        <stop offset="0.3446" style="stop-color:#8B4292"/>
        <stop offset="0.5262" style="stop-color:#7A3D8F"/>
        <stop offset="0.7106" style="stop-color:#62378B"/>
        <stop offset="0.8957" style="stop-color:#443286"/>
        <stop offset="1" style="stop-color:#2D2E83"/>
        <stop offset="1" style="stop-color:#000000"/>
      </linearGradient>
      <path style="fill:url(#SVGID_00000155113957739982618610000012112066614090799515_);" d="M355.22,349.55 c0-10.35-0.01-20.7,0.01-31.05c0-0.88,0.06-1.78,0.23-2.65c0.5-2.57,2.33-4.18,4.99-4.2c6.69-0.05,13.4-0.23,20.08,0.05 c12.44,0.52,23.38,11.38,23.93,23.62c0.44,9.82,0.64,19.66-0.08,29.46c-0.72,9.83-8.17,19.18-19.57,22.05 c-2.33,0.59-4.71,0.83-7.1,0.85c-5.26,0.05-10.52,0.03-15.78,0.01c-4.65-0.02-6.72-2.06-6.72-6.63 C355.21,370.56,355.22,360.05,355.22,349.55z M366.85,349.55c0,8.36,0.02,16.73-0.02,25.09c-0.01,1.17,0.27,1.7,1.6,1.67 c3.29-0.08,6.59,0.01,9.88-0.04c8.41-0.13,14.77-6.46,14.79-14.74c0.02-8,0.05-16-0.01-23.99c-0.05-8.09-6.47-14.39-14.68-14.49 c-3.19-0.04-6.38,0.07-9.56-0.05c-1.67-0.06-2.04,0.55-2.03,2.09C366.88,333.24,366.85,341.39,366.85,349.55z"/>
      <linearGradient id="SVGID_00000091718273588888214680000015189034412271141532_" gradientUnits="userSpaceOnUse" x1="437.013" y1="310.6841" x2="437.013" y2="390.2272">
        <stop offset="0" style="stop-color:#914694"/>
        <stop offset="0" style="stop-color:#954694"/>
        <stop offset="0" style="stop-color:#974694"/>
        <stop offset="0.1676" style="stop-color:#944593"/>
        <stop offset="0.3446" style="stop-color:#8B4292"/>
        <stop offset="0.5262" style="stop-color:#7A3D8F"/>
        <stop offset="0.7106" style="stop-color:#62378B"/>
        <stop offset="0.8957" style="stop-color:#443286"/>
        <stop offset="1" style="stop-color:#2D2E83"/>
        <stop offset="1" style="stop-color:#000000"/>
      </linearGradient>
      <path style="fill:url(#SVGID_00000091718273588888214680000015189034412271141532_);" d="M461.82,379.79 c0,5.78-4.76,10.44-10.61,10.44c-2.52,0-4.83-0.85-6.64-2.3c-1.37,0.28-2.78,0.44-4.25,0.52c-7.09,0.33-13.47-1.3-18.91-5.96 c-5.79-4.96-8.82-11.29-9.12-18.83c-0.17-4.65-0.02-9.29-0.02-13.96c0-4.7-0.08-9.4,0-14.11c0.19-12,9.01-22.4,20.99-24.44 c9.5-1.61,18,0.91,25.38,7c2.14,1.78,2.56,4.67,1.13,6.96c-1.54,2.46-4.38,3.41-7.05,2.33c-1.45-0.57-2.65-1.54-3.95-2.35 c-4.21-2.67-8.84-3.54-13.73-2.65c-6.13,1.11-10.95,6.52-11.06,12.68c-0.17,9.63-0.17,19.25,0,28.86 c0.13,7.13,6.15,12.76,13.38,13.05c1.26,0.06,2.46,0,3.65-0.15c1.28-4.37,5.36-7.55,10.22-7.55 C457.06,369.34,461.82,374.01,461.82,379.79z"/>
    </g>
  </g>
  <g transform="matrix(0.9999999999999999, 0, 0, 0.9999999999999999, -2.842170943040401e-14, 0)">
    <radialGradient id="SVGID_00000031912274763127734310000010536351831725157821_" cx="174.1416" cy="307.2715" r="86.3858" gradientUnits="userSpaceOnUse" spreadMethod="reflect">
      <stop offset="0" style="stop-color:#914694"/>
      <stop offset="0" style="stop-color:#954694"/>
      <stop offset="0" style="stop-color:#974694"/>
      <stop offset="0.1676" style="stop-color:#944593"/>
      <stop offset="0.3446" style="stop-color:#8B4292"/>
      <stop offset="0.5262" style="stop-color:#7A3D8F"/>
      <stop offset="0.7106" style="stop-color:#62378B"/>
      <stop offset="0.8957" style="stop-color:#443286"/>
      <stop offset="1" style="stop-color:#2D2E83"/>
      <stop offset="1" style="stop-color:#000000"/>
    </radialGradient>
    <path style="fill:url(#SVGID_00000031912274763127734310000010536351831725157821_);" d="M 265.89 307.55 C 265.62 308.02 265.13 308.3 264.59 308.3 L 188.96 308.3 L 188.96 348.49 L 210.35 348.49 C 211.17 348.49 211.84 349.16 211.84 349.98 L 211.84 363.21 C 211.84 364.03 211.17 364.7 210.35 364.7 L 139.13 364.7 C 138.31 364.7 137.64 364.03 137.64 363.21 L 137.64 350.37 C 137.64 349.55 138.31 348.88 139.13 348.88 L 156.93 348.88 L 156.93 295.37 C 156.93 294.89 157.16 294.44 157.54 294.16 L 161.7 291.13 L 161.7 278.16 C 161.7 277.72 161.89 277.31 162.22 277.03 L 165.88 273.9 L 165.88 259.63 C 165.88 258.81 166.55 258.14 167.37 258.14 C 168.19 258.14 168.86 258.81 168.86 259.63 L 168.86 265.63 L 172.97 262.2 C 173.28 261.94 173.68 261.82 174.09 261.86 C 174.49 261.9 174.85 262.1 175.1 262.42 L 179.48 267.99 C 179.69 268.25 179.8 268.58 179.8 268.92 L 179.8 274.1 L 183.63 276.74 C 184.04 277.02 184.27 277.48 184.27 277.97 L 184.27 290.88 C 185.38 291.42 186.15 292.57 186.15 293.9 C 186.15 295.76 184.64 297.27 182.78 297.27 C 180.92 297.27 179.41 295.77 179.41 293.9 C 179.41 292.79 179.95 291.8 180.78 291.2 C 180.94 291.08 181.11 290.98 181.29 290.89 L 181.29 278.76 L 177.46 276.12 C 177.05 275.85 176.82 275.39 176.82 274.89 L 176.82 269.44 L 173.71 265.49 L 168.86 269.53 L 168.86 274.6 C 168.86 275.04 168.67 275.45 168.34 275.73 L 164.68 278.86 L 164.68 291.9 C 164.68 292.38 164.45 292.83 164.07 293.11 L 159.91 296.14 L 159.91 350.39 C 159.91 351.22 159.25 351.88 158.42 351.88 L 140.62 351.88 L 140.62 361.73 L 208.86 361.73 L 208.86 351.48 L 187.47 351.48 C 186.65 351.48 185.98 350.81 185.98 349.99 L 185.98 306.82 C 185.98 306 186.65 305.33 187.47 305.33 L 262.01 305.33 L 218.25 229.83 L 130.19 229.83 L 85.42 309.03 L 129.91 384.74 L 218.4 384.74 L 223.77 375.78 L 139.91 375.78 C 139.79 376.02 139.64 376.25 139.47 376.45 C 138.86 377.18 137.94 377.65 136.9 377.65 C 135.04 377.65 133.53 376.14 133.53 374.28 C 133.53 372.42 135.03 370.91 136.9 370.91 C 138.23 370.91 139.38 371.68 139.92 372.79 L 226.42 372.79 C 226.96 372.79 227.45 373.08 227.72 373.55 C 227.99 374.02 227.98 374.59 227.7 375.05 L 220.54 386.99 C 220.27 387.44 219.78 387.72 219.26 387.72 L 129.07 387.72 C 128.54 387.72 128.06 387.44 127.79 386.98 L 82.4 309.79 C 82.13 309.33 82.13 308.76 82.39 308.3 L 128.01 227.6 C 128.27 227.13 128.77 226.84 129.31 226.84 L 219.1 226.84 C 219.63 226.84 220.13 227.13 220.4 227.59 L 222.888 231.882 L 265.89 306.07 C 266.15 306.52 266.15 307.09 265.89 307.55 Z"/>
    <linearGradient id="SVGID_00000111161103704592215750000007995187240681395386_" gradientUnits="userSpaceOnUse" x1="214.7856" y1="242.3902" x2="174.8762" y2="282.2996">
      <stop offset="0" style="stop-color:#914694"/>
      <stop offset="0.1987" style="stop-color:#954694"/>
      <stop offset="0.2739" style="stop-color:#974694"/>
      <stop offset="0.2757" style="stop-color:#974694"/>
      <stop offset="0.3846" style="stop-color:#783C8E"/>
      <stop offset="0.496" style="stop-color:#5F378A"/>
      <stop offset="0.6113" style="stop-color:#4A3387"/>
      <stop offset="0.7307" style="stop-color:#3B3085"/>
      <stop offset="0.8566" style="stop-color:#312F84"/>
      <stop offset="1" style="stop-color:#2D2E83"/>
      <stop offset="1" style="stop-color:#000000"/>
    </linearGradient>
    <path style="fill:url(#SVGID_00000111161103704592215750000007995187240681395386_);" d="M245.91,294.35c0,1.86-1.5,3.37-3.37,3.37 c-1.86,0-3.37-1.51-3.37-3.37c0-0.67,0.2-1.3,0.54-1.83l-30.21-50.97h-74.75c-0.82,0-1.49-0.67-1.49-1.49 c0-0.82,0.67-1.49,1.49-1.49h75.6c0.53,0,1.02,0.28,1.28,0.73l30.65,51.69c0.09-0.01,0.17-0.01,0.26-0.01 C244.4,290.98,245.91,292.49,245.91,294.35z"/>
    <linearGradient id="SVGID_00000161631918325801777110000012721025284108284312_" gradientUnits="userSpaceOnUse" x1="151.8959" y1="309.7911" x2="151.8959" y2="248.234">
      <stop offset="0" style="stop-color:#914694"/>
      <stop offset="0" style="stop-color:#954694"/>
      <stop offset="0" style="stop-color:#974694"/>
      <stop offset="0.1676" style="stop-color:#944593"/>
      <stop offset="0.3446" style="stop-color:#8B4292"/>
      <stop offset="0.5262" style="stop-color:#7A3D8F"/>
      <stop offset="0.7106" style="stop-color:#62378B"/>
      <stop offset="0.8957" style="stop-color:#443286"/>
      <stop offset="1" style="stop-color:#2D2E83"/>
      <stop offset="1" style="stop-color:#000000"/>
    </linearGradient>
    <path style="fill:url(#SVGID_00000161631918325801777110000012721025284108284312_);" d="M207.14,251.6c0,1.86-1.51,3.37-3.37,3.37 c-1.32,0-2.47-0.76-3.02-1.87h-68.14l-33.19,55.97c-0.27,0.47-0.77,0.73-1.28,0.73c-0.26,0-0.52-0.07-0.76-0.21 c-0.71-0.42-0.94-1.34-0.53-2.04l33.62-56.7c0.27-0.45,0.76-0.73,1.29-0.73h68.98c0.55-1.11,1.7-1.87,3.02-1.87 C205.63,248.23,207.14,249.74,207.14,251.6z"/>
    <linearGradient id="SVGID_00000098186468716141128910000009445087503084062645_" gradientUnits="userSpaceOnUse" x1="158.3919" y1="321.86" x2="118.8152" y2="282.2833">
      <stop offset="0" style="stop-color:#914694"/>
      <stop offset="0" style="stop-color:#954694"/>
      <stop offset="0" style="stop-color:#974694"/>
      <stop offset="0.1676" style="stop-color:#944593"/>
      <stop offset="0.3446" style="stop-color:#8B4292"/>
      <stop offset="0.5262" style="stop-color:#7A3D8F"/>
      <stop offset="0.7106" style="stop-color:#62378B"/>
      <stop offset="0.8957" style="stop-color:#443286"/>
      <stop offset="1" style="stop-color:#2D2E83"/>
      <stop offset="1" style="stop-color:#000000"/>
    </linearGradient>
    <path style="fill:url(#SVGID_00000098186468716141128910000009445087503084062645_);" d="M151.38,264.77l-0.27,11.45 c-0.02,0.82-0.71,1.49-1.53,1.46c-0.82-0.02-1.47-0.7-1.46-1.52l0.23-9.92h-9.02l-25.57,44.02l18.69,28.9 c0.19-0.03,0.37-0.05,0.56-0.05c1.86,0,3.37,1.51,3.37,3.37c0,1.86-1.5,3.37-3.37,3.37c-1.86,0-3.37-1.51-3.37-3.37 c0-0.56,0.14-1.09,0.38-1.56l-19.27-29.81c-0.3-0.47-0.32-1.07-0.04-1.56l26.46-45.56c0.27-0.46,0.76-0.74,1.29-0.74h11.41 c0.41,0,0.79,0.16,1.07,0.45C151.24,263.98,151.39,264.37,151.38,264.77z"/>
    <linearGradient id="SVGID_00000149356752001795239770000008991928139138548903_" gradientUnits="userSpaceOnUse" x1="140.6973" y1="292.8555" x2="140.6973" y2="316.6693">
      <stop offset="0" style="stop-color:#914694"/>
      <stop offset="0" style="stop-color:#8D4593"/>
      <stop offset="0" style="stop-color:#824191"/>
      <stop offset="0" style="stop-color:#6F3B8D"/>
      <stop offset="0" style="stop-color:#543589"/>
      <stop offset="0" style="stop-color:#332F84"/>
      <stop offset="0.9899" style="stop-color:#974694"/>
      <stop offset="0.9913" style="stop-color:#924493"/>
      <stop offset="0.9934" style="stop-color:#834090"/>
      <stop offset="0.9958" style="stop-color:#6A398C"/>
      <stop offset="0.9985" style="stop-color:#463287"/>
      <stop offset="1" style="stop-color:#2D2E83"/>
      <stop offset="1" style="stop-color:#000000"/>
    </linearGradient>
    <path style="fill:url(#SVGID_00000149356752001795239770000008991928139138548903_);" d="M150.57,313.3c0,1.86-1.51,3.37-3.37,3.37 c-1.86,0-3.37-1.51-3.37-3.37c0-0.54,0.13-1.04,0.35-1.49l-13.03-16.54c-0.51-0.64-0.4-1.58,0.24-2.1c0.64-0.51,1.59-0.4,2.1,0.25 l13.06,16.56c0.21-0.04,0.42-0.06,0.64-0.06C149.06,309.93,150.57,311.44,150.57,313.3z"/>
    <linearGradient id="SVGID_00000143612852951877616640000017880375609612925571_" gradientUnits="userSpaceOnUse" x1="208.6447" y1="290.0582" x2="208.6447" y2="276.2264">
      <stop offset="0" style="stop-color:#914694"/>
      <stop offset="0" style="stop-color:#954694"/>
      <stop offset="0" style="stop-color:#974694"/>
      <stop offset="0.1676" style="stop-color:#944593"/>
      <stop offset="0.3446" style="stop-color:#8B4292"/>
      <stop offset="0.5262" style="stop-color:#7A3D8F"/>
      <stop offset="0.7106" style="stop-color:#62378B"/>
      <stop offset="0.8957" style="stop-color:#443286"/>
      <stop offset="1" style="stop-color:#2D2E83"/>
      <stop offset="1" style="stop-color:#000000"/>
    </linearGradient>
    <path style="fill:url(#SVGID_00000143612852951877616640000017880375609612925571_);" d="M214.2,286.69c0,1.86-1.51,3.37-3.37,3.37 c-1.86,0-3.37-1.5-3.37-3.37c0-0.54,0.13-1.04,0.35-1.49l-4.47-6.65c-0.46-0.69-0.27-1.61,0.41-2.07c0.69-0.46,1.61-0.28,2.07,0.41 l4.36,6.49c0.21-0.04,0.43-0.06,0.65-0.06C212.69,283.32,214.2,284.83,214.2,286.69z"/>
    <linearGradient id="SVGID_00000034799494279905691560000014743896524630543283_" gradientUnits="userSpaceOnUse" x1="208.3115" y1="323.9087" x2="194.7889" y2="323.9087">
      <stop offset="0" style="stop-color:#914694"/>
      <stop offset="0" style="stop-color:#954694"/>
      <stop offset="0" style="stop-color:#974694"/>
      <stop offset="0.1676" style="stop-color:#944593"/>
      <stop offset="0.3446" style="stop-color:#8B4292"/>
      <stop offset="0.5262" style="stop-color:#7A3D8F"/>
      <stop offset="0.7106" style="stop-color:#62378B"/>
      <stop offset="0.8957" style="stop-color:#443286"/>
      <stop offset="1" style="stop-color:#2D2E83"/>
      <stop offset="1" style="stop-color:#000000"/>
    </linearGradient>
    <path style="fill:url(#SVGID_00000034799494279905691560000014743896524630543283_);" d="M208.31,317.98c0,1.86-1.5,3.37-3.37,3.37 c-0.1,0-0.2-0.01-0.29-0.02l-7.11,11.17c-0.28,0.45-0.76,0.69-1.26,0.69c-0.27,0-0.55-0.08-0.8-0.23c-0.69-0.44-0.9-1.37-0.46-2.06 l7.08-11.12c-0.33-0.52-0.53-1.14-0.53-1.8c0-1.86,1.5-3.37,3.37-3.37C206.81,314.62,208.31,316.13,208.31,317.98z"/>
    <linearGradient id="SVGID_00000065782011127733522760000014879814178047145350_" gradientUnits="userSpaceOnUse" x1="203.9948" y1="327.9479" x2="222.4886" y2="327.9479">
      <stop offset="0" style="stop-color:#914694"/>
      <stop offset="0" style="stop-color:#954694"/>
      <stop offset="0" style="stop-color:#974694"/>
      <stop offset="0.1676" style="stop-color:#944593"/>
      <stop offset="0.3446" style="stop-color:#8B4292"/>
      <stop offset="0.5262" style="stop-color:#7A3D8F"/>
      <stop offset="0.7106" style="stop-color:#62378B"/>
      <stop offset="0.8957" style="stop-color:#443286"/>
      <stop offset="1" style="stop-color:#2D2E83"/>
      <stop offset="1" style="stop-color:#000000"/>
    </linearGradient>
    <path style="fill:url(#SVGID_00000065782011127733522760000014879814178047145350_);" d="M222.25,317.49l-11.92,18.26 c0.26,0.48,0.41,1.03,0.41,1.61c0,1.86-1.51,3.37-3.37,3.37c-1.86,0-3.37-1.5-3.37-3.37s1.51-3.37,3.37-3.37 c0.18,0,0.35,0.01,0.53,0.04l11.86-18.17c0.45-0.69,1.38-0.88,2.07-0.43C222.5,315.87,222.69,316.79,222.25,317.49z"/>
    <linearGradient id="SVGID_00000176740632406889451660000016880507599148575673_" gradientUnits="userSpaceOnUse" x1="218.9222" y1="328.515" x2="249.7921" y2="328.515">
      <stop offset="0" style="stop-color:#914694"/>
      <stop offset="0" style="stop-color:#954694"/>
      <stop offset="0" style="stop-color:#974694"/>
      <stop offset="0.1676" style="stop-color:#944593"/>
      <stop offset="0.3446" style="stop-color:#8B4292"/>
      <stop offset="0.5262" style="stop-color:#7A3D8F"/>
      <stop offset="0.7106" style="stop-color:#62378B"/>
      <stop offset="0.8957" style="stop-color:#443286"/>
      <stop offset="1" style="stop-color:#2D2E83"/>
      <stop offset="1" style="stop-color:#000000"/>
    </linearGradient>
    <path style="fill:url(#SVGID_00000176740632406889451660000016880507599148575673_);" d="M249.56,318.16l-11.06,17.76 c0.35,0.53,0.56,1.17,0.56,1.86c0,1.86-1.5,3.37-3.37,3.37c-1.86,0-3.37-1.51-3.37-3.37c0-1.86,1.5-3.37,3.37-3.37 c0.08,0,0.15,0,0.23,0.01l9.7-15.57h-11.68l-12.25,19.28c-0.44,0.7-1.36,0.9-2.06,0.46c-0.69-0.44-0.9-1.36-0.46-2.06l12.69-19.97 c0.27-0.43,0.75-0.69,1.26-0.69h15.2c0.54,0,1.04,0.3,1.31,0.77C249.87,317.12,249.86,317.7,249.56,318.16z"/>
    <linearGradient id="SVGID_00000039851829744894723050000005764333945338878366_" gradientUnits="userSpaceOnUse" x1="183.3065" y1="279.3111" x2="229.5469" y2="279.3111">
      <stop offset="0" style="stop-color:#914694"/>
      <stop offset="0" style="stop-color:#954694"/>
      <stop offset="0" style="stop-color:#974694"/>
      <stop offset="0.1676" style="stop-color:#944593"/>
      <stop offset="0.3446" style="stop-color:#8B4292"/>
      <stop offset="0.5262" style="stop-color:#7A3D8F"/>
      <stop offset="0.7106" style="stop-color:#62378B"/>
      <stop offset="0.8957" style="stop-color:#443286"/>
      <stop offset="1" style="stop-color:#2D2E83"/>
      <stop offset="1" style="stop-color:#000000"/>
    </linearGradient>
    <path style="fill:url(#SVGID_00000039851829744894723050000005764333945338878366_);" d="M229.34,296.53 c-0.27,0.45-0.76,0.73-1.28,0.73h-33.42c-0.82,0-1.49-0.67-1.49-1.49v-16.91c0-0.82,0.67-1.49,1.49-1.49 c0.82,0,1.49,0.67,1.49,1.49v15.42h29.42l-15.28-28.05h-20.57c-0.54,1.11-1.69,1.87-3.02,1.87c-1.86,0-3.37-1.5-3.37-3.37 c0-1.86,1.5-3.37,3.37-3.37c1.33,0,2.47,0.76,3.02,1.87h21.45c0.55,0,1.05,0.3,1.31,0.78l16.91,31.04 C229.61,295.52,229.61,296.08,229.34,296.53z"/>
    <linearGradient id="SVGID_00000121276526216625741190000012534524226381968318_" gradientUnits="userSpaceOnUse" x1="152.1104" y1="291.9671" x2="136.819" y2="283.1385">
      <stop offset="0" style="stop-color:#914694"/>
      <stop offset="0" style="stop-color:#954694"/>
      <stop offset="0" style="stop-color:#974694"/>
      <stop offset="0.1676" style="stop-color:#944593"/>
      <stop offset="0.3446" style="stop-color:#8B4292"/>
      <stop offset="0.5262" style="stop-color:#7A3D8F"/>
      <stop offset="0.7106" style="stop-color:#62378B"/>
      <stop offset="0.8957" style="stop-color:#443286"/>
      <stop offset="1" style="stop-color:#2D2E83"/>
      <stop offset="1" style="stop-color:#000000"/>
    </linearGradient>
    <path style="fill:url(#SVGID_00000121276526216625741190000012534524226381968318_);" d="M149.92,295.53 c-0.27,0.21-0.59,0.31-0.91,0.31c-0.45,0-0.89-0.2-1.18-0.59l-6.62-8.62c-0.2,0.04-0.4,0.05-0.6,0.05c-1.86,0-3.37-1.51-3.37-3.37 c0-1.86,1.5-3.37,3.37-3.37c1.86,0,3.37,1.51,3.37,3.37c0,0.55-0.13,1.07-0.37,1.53l6.59,8.59 C150.7,294.09,150.58,295.03,149.92,295.53z"/>
    <linearGradient id="SVGID_00000116218871773248752200000012135333240136816261_" gradientUnits="userSpaceOnUse" x1="154.1118" y1="332.0459" x2="119.5362" y2="312.0837">
      <stop offset="0" style="stop-color:#914694"/>
      <stop offset="0" style="stop-color:#954694"/>
      <stop offset="0" style="stop-color:#974694"/>
      <stop offset="0.1676" style="stop-color:#944593"/>
      <stop offset="0.3446" style="stop-color:#8B4292"/>
      <stop offset="0.5262" style="stop-color:#7A3D8F"/>
      <stop offset="0.7106" style="stop-color:#62378B"/>
      <stop offset="0.8957" style="stop-color:#443286"/>
      <stop offset="1" style="stop-color:#2D2E83"/>
      <stop offset="1" style="stop-color:#000000"/>
    </linearGradient>
    <path style="fill:url(#SVGID_00000116218871773248752200000012135333240136816261_);" d="M148.97,340.65 c-0.26,0.18-0.55,0.26-0.84,0.26c-0.48,0-0.94-0.23-1.24-0.66l-20.13-29.67c-0.18,0.03-0.36,0.05-0.55,0.05 c-1.86,0-3.37-1.5-3.37-3.37s1.51-3.37,3.37-3.37c1.86,0,3.37,1.5,3.37,3.37c0,0.57-0.14,1.11-0.39,1.58l20.18,29.73 C149.83,339.26,149.65,340.19,148.97,340.65z"/>
    <linearGradient id="SVGID_00000005264228758971036300000009294084263772009151_" gradientUnits="userSpaceOnUse" x1="99.8134" y1="341.528" x2="131.0698" y2="341.528">
      <stop offset="0" style="stop-color:#914694"/>
      <stop offset="0" style="stop-color:#954694"/>
      <stop offset="0" style="stop-color:#974694"/>
      <stop offset="0.1676" style="stop-color:#944593"/>
      <stop offset="0.3446" style="stop-color:#8B4292"/>
      <stop offset="0.5262" style="stop-color:#7A3D8F"/>
      <stop offset="0.7106" style="stop-color:#62378B"/>
      <stop offset="0.8957" style="stop-color:#443286"/>
      <stop offset="1" style="stop-color:#2D2E83"/>
      <stop offset="1" style="stop-color:#000000"/>
    </linearGradient>
    <path style="fill:url(#SVGID_00000005264228758971036300000009294084263772009151_);" d="M130.35,365.68 c-0.24,0.15-0.51,0.22-0.78,0.22c-0.5,0-1-0.26-1.28-0.72l-25.32-41.72h-0.02c-1.74,0-3.15-1.41-3.15-3.15 c0-1.74,1.41-3.15,3.15-3.15s3.15,1.41,3.15,3.15c0,0.63-0.19,1.22-0.51,1.71l25.26,41.61 C131.28,364.33,131.06,365.25,130.35,365.68z"/>
    <linearGradient id="SVGID_00000098942619807341816910000004845991074872757932_" gradientUnits="userSpaceOnUse" x1="218.9241" y1="355.0962" x2="231.8895" y2="355.0962">
      <stop offset="0" style="stop-color:#914694"/>
      <stop offset="0" style="stop-color:#954694"/>
      <stop offset="0" style="stop-color:#974694"/>
      <stop offset="0.1676" style="stop-color:#944593"/>
      <stop offset="0.3446" style="stop-color:#8B4292"/>
      <stop offset="0.5262" style="stop-color:#7A3D8F"/>
      <stop offset="0.7106" style="stop-color:#62378B"/>
      <stop offset="0.8957" style="stop-color:#443286"/>
      <stop offset="1" style="stop-color:#2D2E83"/>
      <stop offset="1" style="stop-color:#000000"/>
    </linearGradient>
    <path style="fill:url(#SVGID_00000098942619807341816910000004845991074872757932_);" d="M231.89,349.57c0,1.86-1.5,3.37-3.37,3.37 c-0.11,0-0.22-0.01-0.33-0.02l-6.51,10.38c-0.28,0.45-0.77,0.7-1.27,0.7c-0.27,0-0.54-0.07-0.79-0.23 c-0.7-0.44-0.91-1.36-0.47-2.06l6.5-10.38c-0.32-0.51-0.5-1.12-0.5-1.76c0-1.86,1.5-3.37,3.37-3.37 C230.38,346.2,231.89,347.7,231.89,349.57z"/>
    <linearGradient id="SVGID_00000020380527897491175730000014146646208174221705_" gradientUnits="userSpaceOnUse" x1="261.9738" y1="341.8647" x2="230.5401" y2="341.8647">
      <stop offset="0" style="stop-color:#914694"/>
      <stop offset="0" style="stop-color:#954694"/>
      <stop offset="0" style="stop-color:#974694"/>
      <stop offset="0.1676" style="stop-color:#944593"/>
      <stop offset="0.3446" style="stop-color:#8B4292"/>
      <stop offset="0.5262" style="stop-color:#7A3D8F"/>
      <stop offset="0.7106" style="stop-color:#62378B"/>
      <stop offset="0.8957" style="stop-color:#443286"/>
      <stop offset="1" style="stop-color:#2D2E83"/>
      <stop offset="1" style="stop-color:#000000"/>
    </linearGradient>
    <path style="fill:url(#SVGID_00000020380527897491175730000014146646208174221705_);" d="M261.76,319.41l-25.11,41.85 c0.39,0.55,0.62,1.22,0.62,1.95c0,1.86-1.5,3.37-3.37,3.37c-1.86,0-3.37-1.51-3.37-3.37c0-1.86,1.5-3.37,3.37-3.37 c0.04,0,0.08,0,0.11,0.01l25.18-41.97c0.42-0.7,1.34-0.94,2.05-0.51C261.96,317.79,262.18,318.71,261.76,319.41z"/>
  </g>
</svg>