<?xml version="1.0" encoding="utf-8"?>
<svg viewBox="144.36 124.03 303.2401 265.29" xmlns="http://www.w3.org/2000/svg">
  <defs>
    <radialGradient gradientUnits="userSpaceOnUse" cx="295.98" cy="256.675" r="151.62" id="gradient-1">
      <stop offset="0" style="stop-color:#914694"/>
      <stop offset="0" style="stop-color:#954694"/>
      <stop offset="0" style="stop-color:#974694"/>
      <stop offset="0.1676" style="stop-color:#944593"/>
      <stop offset="0.3446" style="stop-color:#8B4292"/>
      <stop offset="0.5262" style="stop-color:#7A3D8F"/>
      <stop offset="0.7106" style="stop-color:#62378B"/>
      <stop offset="0.8957" style="stop-color:#443286"/>
      <stop offset="1" style="stop-color:#2D2E83"/>
      <stop offset="1" style="stop-color:#000000"/>
    </radialGradient>
    <style type="text/css">
	.st0{fill:#010202;}
	.st1{fill:url(#SVGID_1_);}
	.st2{fill:url(#SVGID_00000168077688069389232310000006576656766581032631_);}
	.st3{fill:url(#SVGID_00000010993672839377944990000013378002174443313818_);}
	.st4{fill:url(#SVGID_00000150072104940218874830000004385481725600163998_);}
	.st5{fill:url(#SVGID_00000078045383635866317880000016522035199748541358_);}
	.st6{fill:url(#SVGID_00000128483474585536107370000009917034281985116301_);}
	.st7{fill:url(#SVGID_00000067950052736073424040000014234308588161073594_);}
	.st8{fill:url(#SVGID_00000121959604037710985680000009296468659099543471_);}
	.st9{fill:url(#SVGID_00000148638554626124640880000014143371513839050374_);}
	.st10{fill:url(#SVGID_00000031910986712604917830000016429854722915999677_);}
	.st11{fill:url(#SVGID_00000168796445053013005160000018440866885640956302_);}
	.st12{fill:url(#SVGID_00000008829325627473237250000013656227968527678115_);}
	.st13{fill:url(#SVGID_00000161596638193364004700000008437512438779249558_);}
	.st14{fill:url(#SVGID_00000039114794525314363510000016721566117015888277_);}
	.st15{fill:url(#SVGID_00000031190307349845095620000003319590764789928380_);}
	.st16{fill:#2D2E83;}
	.st17{fill:url(#SVGID_00000036944336072265910060000014986085071346084737_);}
	.st18{fill:url(#SVGID_00000123423564063825355540000007110441275333878664_);}
	.st19{fill:url(#SVGID_00000130632788800007176300000005329461876495270065_);}
	.st20{fill:#FFFFFF;}
	.st21{fill:url(#SVGID_00000181088549032722721560000014474742738225458108_);}
	.st22{fill:url(#SVGID_00000141420441216886068040000010003209818936861610_);}
	.st23{fill:url(#SVGID_00000036930163563647111760000004126117228312603301_);}
	.st24{fill:url(#SVGID_00000060709109425788703510000012653482463139588494_);}
	.st25{fill:url(#SVGID_00000057869546049933172520000002379580972512756668_);}
	.st26{fill:url(#SVGID_00000148645220201895291730000002264791016212161465_);}
	.st27{fill:url(#SVGID_00000126294645452248371460000015053447834629086898_);}
	.st28{fill:url(#SVGID_00000112607166698244009720000017534250667617692576_);}
	.st29{fill:url(#SVGID_00000051374027971903283620000007023045753990077575_);}
	.st30{fill:url(#SVGID_00000127760528378567678810000005345813429839551387_);}
	.st31{fill:url(#SVGID_00000147178041287422186250000004028196379105394827_);}
	.st32{fill:url(#SVGID_00000106139759727769328990000003314485133915767741_);}
	.st33{fill:url(#SVGID_00000048468801515890179550000016856238744941537434_);}
	.st34{fill:url(#SVGID_00000181772141845422164140000018055620798465815743_);}
	.st35{fill:url(#SVGID_00000144318357551085204460000012980886385439949752_);}
	.st36{fill:url(#SVGID_00000036215470065261244390000002281810159681608084_);}
	.st37{fill:url(#SVGID_00000021822593251959670150000010413051786192809601_);}
	.st38{fill:url(#SVGID_00000111152649682040226960000002830389911258229153_);}
	.st39{fill:url(#SVGID_00000010292127855106059270000013394766891519944368_);}
	.st40{fill:url(#SVGID_00000173848856589294938270000007440853920838256800_);}
	.st41{fill:url(#SVGID_00000176030791461862811110000011379773572100863624_);}
	.st42{fill:url(#SVGID_00000162316259264394415910000008587701364177044157_);}
	.st43{fill:url(#SVGID_00000176729935571713405620000003233992429616001669_);}
	.st44{fill:url(#SVGID_00000044889227712172252510000005878662054930256809_);}
	.st45{fill:url(#SVGID_00000171719222051509407580000004580441807805365679_);}
	.st46{fill:url(#SVGID_00000078729884828027764700000015268853908312476293_);}
	.st47{fill:url(#SVGID_00000138532378162587304720000000654296666775707068_);}
	.st48{fill:url(#SVGID_00000005981013918706783050000004444549949913666490_);}
	.st49{fill:url(#SVGID_00000032637687307269270470000005832450489244483999_);}
	.st50{fill:url(#SVGID_00000089576391850526516860000004051238026978803128_);}
	.st51{fill:url(#SVGID_00000170249848618623001770000004064158130312802182_);}
	.st52{fill:url(#SVGID_00000006692860686388239250000012110607735872634757_);}
	.st53{fill:url(#SVGID_00000113333085777525205800000004418786558524113586_);}
	.st54{fill:url(#SVGID_00000056397181545645214680000014911212526029381050_);}
	.st55{fill:url(#SVGID_00000114036366500820517650000012595481388082926213_);}
	.st56{fill:url(#SVGID_00000121244913640070576330000011880275126030136216_);}
	.st57{fill:url(#SVGID_00000075122931639331432550000005288256513330900409_);}
	.st58{fill:url(#SVGID_00000004534350799570194850000017371635307040553355_);}
	.st59{fill:url(#SVGID_00000101073653511164843350000011732695309426803331_);}
	.st60{fill:url(#SVGID_00000182486064720145875990000004593685220376037547_);}
	.st61{fill:url(#SVGID_00000148639221674674808350000009299212410225188270_);}
	.st62{fill:url(#SVGID_00000069371992078981790030000004714237442094590864_);}
	.st63{fill:url(#SVGID_00000009588936415120083280000017591122399541612450_);}
	.st64{fill:url(#SVGID_00000024001222933460068490000015193551095281696138_);}
	.st65{fill:url(#SVGID_00000153686628526183665200000011797912177443070357_);}
	.st66{fill:url(#SVGID_00000030449371894957551580000011328598580537873083_);}
	.st67{fill:url(#SVGID_00000005984596345017254680000012634021409057827253_);}
	.st68{fill:url(#SVGID_00000106831511498683790330000014850979361685605271_);}
	.st69{fill:url(#SVGID_00000093159426077434214210000004848215824916663703_);}
	.st70{fill:url(#SVGID_00000082336006846801977110000003024857397546995866_);}
	.st71{fill:url(#SVGID_00000108304596817141793050000007180984191212771250_);}
	.st72{fill:url(#SVGID_00000134931281620361958690000007708713361534105525_);}
	.st73{fill:url(#SVGID_00000060714150098876538010000005521537025070943407_);}
	.st74{fill:url(#SVGID_00000012466677506243935850000014568818210612561854_);}
	.st75{fill:url(#SVGID_00000168105318169640890780000007949121542168231058_);}
	.st76{fill:url(#SVGID_00000023959715741312215590000017650394107641193624_);}
	.st77{fill:url(#SVGID_00000098208526769406654100000014271955387805081509_);}
	.st78{fill:url(#SVGID_00000183950664249380571630000016284184822800586147_);}
	.st79{fill:url(#SVGID_00000010992542853523470410000008521640159433347518_);}
	.st80{fill:url(#SVGID_00000127741146681390472060000010265856258594875045_);}
	.st81{fill:url(#SVGID_00000097481750569062739080000015046489457249148334_);}
	.st82{fill:url(#SVGID_00000029760531037280463030000004749777456211984045_);}
	.st83{fill:url(#SVGID_00000061453552048372190250000003276923522466676926_);}
	.st84{fill:url(#SVGID_00000041991235113496770200000007453559298391008410_);}
	.st85{fill:url(#SVGID_00000173128860642990770970000009535936160625096583_);}
	.st86{fill:url(#SVGID_00000149350037579350584590000004086494616559508925_);}
	.st87{fill:url(#SVGID_00000064356314157412862740000009479013339033681041_);}
	.st88{fill:url(#SVGID_00000171679046065374007220000001542991077447644089_);}
	.st89{fill:url(#SVGID_00000011744259194975749810000013212745174471546002_);}
	.st90{fill:url(#SVGID_00000070085915568905546210000001457253605356090766_);}
	.st91{fill:url(#SVGID_00000126323053394809031100000012977524547100082091_);}
	.st92{fill:url(#SVGID_00000096043356989840075760000006653760088808420487_);}
	.st93{fill:url(#SVGID_00000160883061362658454710000017180296091957757087_);}
	.st94{fill:url(#SVGID_00000024716095342479318120000018383140763104788926_);}
	.st95{fill:url(#SVGID_00000109712520448890718450000008788839545253917593_);}
	.st96{fill:url(#SVGID_00000179648554893341945690000008867842094355213230_);}
	.st97{fill:url(#SVGID_00000155869238706510600790000002571701711576700607_);}
	.st98{fill:url(#SVGID_00000011022461802597588850000001718673435485760946_);}
	.st99{fill:url(#SVGID_00000022527136969878693770000017095004769907191961_);}
	.st100{fill:url(#SVGID_00000112621453780623097140000008342292843966122379_);}
	.st101{fill:url(#SVGID_00000110468005283784197680000000891381352297716097_);}
	.st102{fill:url(#SVGID_00000090974837535718733060000006587265583926596260_);}
	.st103{fill:url(#SVGID_00000042721197789896178680000009678165068131053740_);}
	.st104{fill:url(#SVGID_00000133491341626263710290000011501224365229964963_);}
	.st105{fill:url(#SVGID_00000090991252488145808120000007190221781909731461_);}
	.st106{fill:url(#SVGID_00000011739128130292171770000013762845515927372218_);}
	.st107{fill:url(#SVGID_00000076574833725212902150000013929494153111568827_);}
	.st108{fill:url(#SVGID_00000037690198126530403890000018374778085123715760_);}
	.st109{fill:url(#SVGID_00000078762867094805783300000003661196545935720847_);}
	.st110{fill:url(#SVGID_00000144318627414995886720000016421950757051374993_);}
	.st111{fill:url(#SVGID_00000024715020202403528570000004268362505141504391_);}
	.st112{fill:url(#SVGID_00000042738809734171505510000008331092232043132586_);}
	.st113{fill:url(#SVGID_00000146459605748823469920000015617308315291311285_);}
	.st114{fill:url(#SVGID_00000018952472571982272090000012645330571600517034_);}
	.st115{fill:url(#SVGID_00000058559089731004203490000003183968712308548993_);}
	.st116{fill:url(#SVGID_00000060737574393120950840000018135341714293588117_);}
	.st117{fill:url(#SVGID_00000152226644281131985280000000484449784671419295_);}
	.st118{fill:url(#SVGID_00000032638779806827127010000001502463249300599475_);}
	.st119{fill:url(#SVGID_00000168819320876374277800000011414301747745000599_);}
	.st120{fill:url(#SVGID_00000018933270819038705100000000830968781584435854_);}
	.st121{fill:url(#SVGID_00000131326672462129414120000008061045195556293022_);}
	.st122{fill:url(#SVGID_00000163785962559425067330000015037966449975510459_);}
	.st123{fill:url(#SVGID_00000119831418103542176050000008089879570481987993_);}
	.st124{fill:url(#SVGID_00000084531425311796388230000014415370843429823905_);}
	.st125{fill:url(#SVGID_00000031894734173674688550000017869737738272928648_);}
</style>
  </defs>
  <linearGradient id="SVGID_00000059999192799306342730000008760398236409041284_" gradientUnits="userSpaceOnUse" x1="363.0021" y1="149.6594" x2="297.1924" y2="215.4692">
    <stop offset="0" style="stop-color:#914694"/>
    <stop offset="0.1987" style="stop-color:#954694"/>
    <stop offset="0.2739" style="stop-color:#974694"/>
    <stop offset="0.2757" style="stop-color:#974694"/>
    <stop offset="0.3846" style="stop-color:#783C8E"/>
    <stop offset="0.496" style="stop-color:#5F378A"/>
    <stop offset="0.6113" style="stop-color:#4A3387"/>
    <stop offset="0.7307" style="stop-color:#3B3085"/>
    <stop offset="0.8566" style="stop-color:#312F84"/>
    <stop offset="1" style="stop-color:#2D2E83"/>
    <stop offset="1" style="stop-color:#000000"/>
  </linearGradient>
  <linearGradient id="SVGID_00000178900972909462958910000009051235711144097448_" gradientUnits="userSpaceOnUse" x1="259.2983" y1="260.8021" x2="259.2983" y2="159.2958">
    <stop offset="0" style="stop-color:#914694"/>
    <stop offset="0" style="stop-color:#954694"/>
    <stop offset="0" style="stop-color:#974694"/>
    <stop offset="0.1676" style="stop-color:#944593"/>
    <stop offset="0.3446" style="stop-color:#8B4292"/>
    <stop offset="0.5262" style="stop-color:#7A3D8F"/>
    <stop offset="0.7106" style="stop-color:#62378B"/>
    <stop offset="0.8957" style="stop-color:#443286"/>
    <stop offset="1" style="stop-color:#2D2E83"/>
    <stop offset="1" style="stop-color:#000000"/>
  </linearGradient>
  <linearGradient id="SVGID_00000122706799847949774020000016074212445193468548_" gradientUnits="userSpaceOnUse" x1="270.0102" y1="280.7034" x2="204.7491" y2="215.4423">
    <stop offset="0" style="stop-color:#914694"/>
    <stop offset="0" style="stop-color:#954694"/>
    <stop offset="0" style="stop-color:#974694"/>
    <stop offset="0.1676" style="stop-color:#944593"/>
    <stop offset="0.3446" style="stop-color:#8B4292"/>
    <stop offset="0.5262" style="stop-color:#7A3D8F"/>
    <stop offset="0.7106" style="stop-color:#62378B"/>
    <stop offset="0.8957" style="stop-color:#443286"/>
    <stop offset="1" style="stop-color:#2D2E83"/>
    <stop offset="1" style="stop-color:#000000"/>
  </linearGradient>
  <linearGradient id="SVGID_00000179614314225185885990000016866912764372311941_" gradientUnits="userSpaceOnUse" x1="240.832" y1="232.8757" x2="240.832" y2="272.144">
    <stop offset="0" style="stop-color:#914694"/>
    <stop offset="0" style="stop-color:#8D4593"/>
    <stop offset="0" style="stop-color:#824191"/>
    <stop offset="0" style="stop-color:#6F3B8D"/>
    <stop offset="0" style="stop-color:#543589"/>
    <stop offset="0" style="stop-color:#332F84"/>
    <stop offset="0.9899" style="stop-color:#974694"/>
    <stop offset="0.9913" style="stop-color:#924493"/>
    <stop offset="0.9934" style="stop-color:#834090"/>
    <stop offset="0.9958" style="stop-color:#6A398C"/>
    <stop offset="0.9985" style="stop-color:#463287"/>
    <stop offset="1" style="stop-color:#2D2E83"/>
    <stop offset="1" style="stop-color:#000000"/>
  </linearGradient>
  <linearGradient id="SVGID_00000068673769954282363400000003012600954906899129_" gradientUnits="userSpaceOnUse" x1="352.8759" y1="228.263" x2="352.8759" y2="205.4547">
    <stop offset="0" style="stop-color:#914694"/>
    <stop offset="0" style="stop-color:#954694"/>
    <stop offset="0" style="stop-color:#974694"/>
    <stop offset="0.1676" style="stop-color:#944593"/>
    <stop offset="0.3446" style="stop-color:#8B4292"/>
    <stop offset="0.5262" style="stop-color:#7A3D8F"/>
    <stop offset="0.7106" style="stop-color:#62378B"/>
    <stop offset="0.8957" style="stop-color:#443286"/>
    <stop offset="1" style="stop-color:#2D2E83"/>
    <stop offset="1" style="stop-color:#000000"/>
  </linearGradient>
  <linearGradient id="SVGID_00000161619493513365345940000005072667776190746769_" gradientUnits="userSpaceOnUse" x1="352.3265" y1="284.0816" x2="330.028" y2="284.0816">
    <stop offset="0" style="stop-color:#914694"/>
    <stop offset="0" style="stop-color:#954694"/>
    <stop offset="0" style="stop-color:#974694"/>
    <stop offset="0.1676" style="stop-color:#944593"/>
    <stop offset="0.3446" style="stop-color:#8B4292"/>
    <stop offset="0.5262" style="stop-color:#7A3D8F"/>
    <stop offset="0.7106" style="stop-color:#62378B"/>
    <stop offset="0.8957" style="stop-color:#443286"/>
    <stop offset="1" style="stop-color:#2D2E83"/>
    <stop offset="1" style="stop-color:#000000"/>
  </linearGradient>
  <linearGradient id="SVGID_00000074416308095151799600000001418869165731539849_" gradientUnits="userSpaceOnUse" x1="345.2083" y1="290.7422" x2="375.7042" y2="290.7422">
    <stop offset="0" style="stop-color:#914694"/>
    <stop offset="0" style="stop-color:#954694"/>
    <stop offset="0" style="stop-color:#974694"/>
    <stop offset="0.1676" style="stop-color:#944593"/>
    <stop offset="0.3446" style="stop-color:#8B4292"/>
    <stop offset="0.5262" style="stop-color:#7A3D8F"/>
    <stop offset="0.7106" style="stop-color:#62378B"/>
    <stop offset="0.8957" style="stop-color:#443286"/>
    <stop offset="1" style="stop-color:#2D2E83"/>
    <stop offset="1" style="stop-color:#000000"/>
  </linearGradient>
  <linearGradient id="SVGID_00000053525760923821175390000015935072234377269122_" gradientUnits="userSpaceOnUse" x1="369.8232" y1="291.6774" x2="420.7271" y2="291.6774">
    <stop offset="0" style="stop-color:#914694"/>
    <stop offset="0" style="stop-color:#954694"/>
    <stop offset="0" style="stop-color:#974694"/>
    <stop offset="0.1676" style="stop-color:#944593"/>
    <stop offset="0.3446" style="stop-color:#8B4292"/>
    <stop offset="0.5262" style="stop-color:#7A3D8F"/>
    <stop offset="0.7106" style="stop-color:#62378B"/>
    <stop offset="0.8957" style="stop-color:#443286"/>
    <stop offset="1" style="stop-color:#2D2E83"/>
    <stop offset="1" style="stop-color:#000000"/>
  </linearGradient>
  <linearGradient id="SVGID_00000183217094450174259810000006944341485211823519_" gradientUnits="userSpaceOnUse" x1="311.0938" y1="210.5412" x2="387.3432" y2="210.5412">
    <stop offset="0" style="stop-color:#914694"/>
    <stop offset="0" style="stop-color:#954694"/>
    <stop offset="0" style="stop-color:#974694"/>
    <stop offset="0.1676" style="stop-color:#944593"/>
    <stop offset="0.3446" style="stop-color:#8B4292"/>
    <stop offset="0.5262" style="stop-color:#7A3D8F"/>
    <stop offset="0.7106" style="stop-color:#62378B"/>
    <stop offset="0.8957" style="stop-color:#443286"/>
    <stop offset="1" style="stop-color:#2D2E83"/>
    <stop offset="1" style="stop-color:#000000"/>
  </linearGradient>
  <linearGradient id="SVGID_00000180341047446239554160000007684996401925858993_" gradientUnits="userSpaceOnUse" x1="259.6522" y1="231.4107" x2="234.4368" y2="216.8526">
    <stop offset="0" style="stop-color:#914694"/>
    <stop offset="0" style="stop-color:#954694"/>
    <stop offset="0" style="stop-color:#974694"/>
    <stop offset="0.1676" style="stop-color:#944593"/>
    <stop offset="0.3446" style="stop-color:#8B4292"/>
    <stop offset="0.5262" style="stop-color:#7A3D8F"/>
    <stop offset="0.7106" style="stop-color:#62378B"/>
    <stop offset="0.8957" style="stop-color:#443286"/>
    <stop offset="1" style="stop-color:#2D2E83"/>
    <stop offset="1" style="stop-color:#000000"/>
  </linearGradient>
  <linearGradient id="SVGID_00000148631763851842336190000005201555635607421829_" gradientUnits="userSpaceOnUse" x1="262.9523" y1="297.4998" x2="205.938" y2="264.5826">
    <stop offset="0" style="stop-color:#914694"/>
    <stop offset="0" style="stop-color:#954694"/>
    <stop offset="0" style="stop-color:#974694"/>
    <stop offset="0.1676" style="stop-color:#944593"/>
    <stop offset="0.3446" style="stop-color:#8B4292"/>
    <stop offset="0.5262" style="stop-color:#7A3D8F"/>
    <stop offset="0.7106" style="stop-color:#62378B"/>
    <stop offset="0.8957" style="stop-color:#443286"/>
    <stop offset="1" style="stop-color:#2D2E83"/>
    <stop offset="1" style="stop-color:#000000"/>
  </linearGradient>
  <linearGradient id="SVGID_00000048463254383302484740000001044267687575528597_" gradientUnits="userSpaceOnUse" x1="173.4154" y1="313.1355" x2="224.9565" y2="313.1355">
    <stop offset="0" style="stop-color:#914694"/>
    <stop offset="0" style="stop-color:#954694"/>
    <stop offset="0" style="stop-color:#974694"/>
    <stop offset="0.1676" style="stop-color:#944593"/>
    <stop offset="0.3446" style="stop-color:#8B4292"/>
    <stop offset="0.5262" style="stop-color:#7A3D8F"/>
    <stop offset="0.7106" style="stop-color:#62378B"/>
    <stop offset="0.8957" style="stop-color:#443286"/>
    <stop offset="1" style="stop-color:#2D2E83"/>
    <stop offset="1" style="stop-color:#000000"/>
  </linearGradient>
  <linearGradient id="SVGID_00000016776032776808079550000016798786234741143450_" gradientUnits="userSpaceOnUse" x1="369.8265" y1="335.5092" x2="391.2061" y2="335.5092">
    <stop offset="0" style="stop-color:#914694"/>
    <stop offset="0" style="stop-color:#954694"/>
    <stop offset="0" style="stop-color:#974694"/>
    <stop offset="0.1676" style="stop-color:#944593"/>
    <stop offset="0.3446" style="stop-color:#8B4292"/>
    <stop offset="0.5262" style="stop-color:#7A3D8F"/>
    <stop offset="0.7106" style="stop-color:#62378B"/>
    <stop offset="0.8957" style="stop-color:#443286"/>
    <stop offset="1" style="stop-color:#2D2E83"/>
    <stop offset="1" style="stop-color:#000000"/>
  </linearGradient>
  <linearGradient id="SVGID_00000099636731956821262480000005079463703359264169_" gradientUnits="userSpaceOnUse" x1="440.8144" y1="313.6907" x2="388.981" y2="313.6907">
    <stop offset="0" style="stop-color:#914694"/>
    <stop offset="0" style="stop-color:#954694"/>
    <stop offset="0" style="stop-color:#974694"/>
    <stop offset="0.1676" style="stop-color:#944593"/>
    <stop offset="0.3446" style="stop-color:#8B4292"/>
    <stop offset="0.5262" style="stop-color:#7A3D8F"/>
    <stop offset="0.7106" style="stop-color:#62378B"/>
    <stop offset="0.8957" style="stop-color:#443286"/>
    <stop offset="1" style="stop-color:#2D2E83"/>
    <stop offset="1" style="stop-color:#000000"/>
  </linearGradient>
  <path class="st1" d="M447.27,257.11c-0.44,0.77-1.25,1.23-2.14,1.23H320.42v66.27h35.27c1.36,0,2.46,1.1,2.46,2.46v21.82 c0,1.36-1.1,2.46-2.46,2.46H238.24c-1.36,0-2.46-1.1-2.46-2.46v-21.17c0-1.36,1.1-2.46,2.46-2.46h29.36v-88.24 c0-0.79,0.38-1.53,1.01-1.99l6.86-5v-21.38c0-0.72,0.32-1.4,0.86-1.87l6.04-5.17v-23.53c0-1.36,1.1-2.46,2.46-2.46 s2.46,1.1,2.46,2.46v9.89l6.78-5.65c0.51-0.42,1.17-0.63,1.84-0.56c0.66,0.07,1.26,0.4,1.67,0.93l7.22,9.19 c0.34,0.43,0.53,0.97,0.53,1.53v8.55l6.31,4.35c0.67,0.46,1.06,1.22,1.06,2.03v21.29c1.83,0.9,3.1,2.79,3.1,4.98 c0,3.07-2.49,5.55-5.55,5.55c-3.07,0-5.56-2.48-5.56-5.55c0-1.83,0.89-3.46,2.25-4.46c0.27-0.2,0.54-0.36,0.84-0.51v-20.01 l-6.31-4.35c-0.67-0.45-1.06-1.21-1.06-2.03v-8.99l-5.13-6.52l-7.99,6.66v8.36c0,0.72-0.32,1.41-0.86,1.87l-6.04,5.17v21.5 c0,0.79-0.37,1.53-1.01,1.99l-6.86,5v89.46c0,1.37-1.09,2.46-2.46,2.46H240.7v16.24h112.52v-16.89h-35.27 c-1.36,0-2.46-1.1-2.46-2.46v-71.19c0-1.36,1.1-2.46,2.46-2.46h122.91l-72.17-124.5H223.49l-73.82,130.6l73.36,124.85h145.92 l8.85-14.77H239.51c-0.2,0.4-0.44,0.77-0.73,1.11c-1,1.21-2.53,1.98-4.24,1.98c-3.07,0-5.55-2.49-5.55-5.56 c0-3.06,2.48-5.55,5.55-5.55c2.19,0,4.09,1.27,4.98,3.1h142.63c0.89,0,1.7,0.48,2.14,1.25c0.44,0.78,0.43,1.72-0.03,2.48 l-11.8,19.68c-0.44,0.75-1.25,1.2-2.12,1.2H221.62c-0.87,0-1.67-0.46-2.12-1.22l-74.8-127.28c-0.45-0.76-0.45-1.69-0.02-2.46 l75.23-133.08c0.43-0.77,1.25-1.25,2.15-1.25h148.06c0.88,0,1.69,0.47,2.14,1.23l75.01,129.42 C447.71,255.41,447.71,256.35,447.27,257.11z" style="paint-order: fill; fill-rule: nonzero; fill: url('#gradient-1');" transform="matrix(1, 0, 0, 1, -1.4210854715202004e-14, 0)"/>
  <path style="fill:url(#SVGID_00000059999192799306342730000008760398236409041284_);" d="M414.32,235.34 c0,3.06-2.48,5.55-5.55,5.55c-3.07,0-5.55-2.49-5.55-5.55c0-1.11,0.32-2.15,0.89-3.01l-49.82-84.05H231.02 c-1.36,0-2.46-1.1-2.46-2.46s1.1-2.46,2.46-2.46h124.66c0.87,0,1.67,0.46,2.12,1.21l50.54,85.23c0.15-0.01,0.29-0.02,0.43-0.02 C411.84,229.78,414.32,232.27,414.32,235.34z" transform="matrix(1, 0, 0, 1, -1.4210854715202004e-14, 0)"/>
  <path style="fill:url(#SVGID_00000178900972909462958910000009051235711144097448_);" d="M350.4,164.85c0,3.07-2.49,5.55-5.56,5.55 c-2.18,0-4.07-1.26-4.97-3.09H227.51l-54.73,92.29c-0.45,0.77-1.27,1.2-2.12,1.2c-0.42,0-0.86-0.11-1.25-0.34 c-1.17-0.69-1.56-2.21-0.87-3.37l55.44-93.5c0.45-0.75,1.25-1.2,2.13-1.2h113.75c0.91-1.83,2.8-3.09,4.97-3.09 C347.91,159.3,350.4,161.78,350.4,164.85z" transform="matrix(1, 0, 0, 1, -1.4210854715202004e-14, 0)"/>
  <path style="fill:url(#SVGID_00000122706799847949774020000016074212445193468548_);" d="M258.45,186.56l-0.44,18.87 c-0.03,1.36-1.17,2.45-2.52,2.4c-1.36-0.03-2.43-1.15-2.4-2.51l0.38-16.36h-14.88l-42.16,72.59l30.82,47.65 c0.31-0.05,0.61-0.08,0.93-0.08c3.07,0,5.55,2.49,5.55,5.55c0,3.07-2.48,5.56-5.55,5.56c-3.07,0-5.55-2.49-5.55-5.56 c0-0.93,0.23-1.8,0.63-2.57l-31.77-49.15c-0.5-0.78-0.53-1.77-0.07-2.57l43.63-75.13c0.44-0.76,1.25-1.22,2.13-1.22h18.81 c0.67,0,1.3,0.27,1.76,0.74C258.21,185.26,258.47,185.9,258.45,186.56z" transform="matrix(1, 0, 0, 1, -1.4210854715202004e-14, 0)"/>
  <path style="fill:url(#SVGID_00000179614314225185885990000016866912764372311941_);" d="M257.11,266.58 c0,3.07-2.49,5.56-5.56,5.56c-3.06,0-5.55-2.49-5.55-5.56c0-0.89,0.21-1.71,0.58-2.45l-21.49-27.27c-0.85-1.06-0.66-2.61,0.4-3.46 c1.06-0.84,2.62-0.66,3.46,0.41l21.54,27.31c0.34-0.06,0.7-0.1,1.06-0.1C254.62,261.03,257.11,263.52,257.11,266.58z" transform="matrix(1, 0, 0, 1, -1.4210854715202004e-14, 0)"/>
  <path style="fill:url(#SVGID_00000068673769954282363400000003012600954906899129_);" d="M362.04,222.71 c0,3.07-2.49,5.55-5.56,5.55c-3.06,0-5.55-2.48-5.55-5.55c0-0.89,0.21-1.71,0.57-2.45l-7.37-10.97c-0.76-1.13-0.45-2.66,0.67-3.42 c1.13-0.76,2.66-0.46,3.42,0.67l7.2,10.7c0.34-0.06,0.71-0.1,1.07-0.1C359.55,217.15,362.04,219.64,362.04,222.71z" transform="matrix(1, 0, 0, 1, -1.4210854715202004e-14, 0)"/>
  <path style="fill:url(#SVGID_00000161619493513365345940000005072667776190746769_);" d="M352.33,274.31 c0,3.07-2.48,5.56-5.55,5.56c-0.16,0-0.32-0.01-0.48-0.03l-11.73,18.42c-0.46,0.74-1.26,1.14-2.08,1.14 c-0.45,0-0.91-0.13-1.32-0.38c-1.14-0.73-1.49-2.25-0.76-3.4l11.68-18.34c-0.55-0.86-0.87-1.88-0.87-2.97 c0-3.06,2.48-5.55,5.55-5.55C349.85,268.76,352.33,271.25,352.33,274.31z" transform="matrix(1, 0, 0, 1, -1.4210854715202004e-14, 0)"/>
  <path style="fill:url(#SVGID_00000074416308095151799600000001418869165731539849_);" d="M375.31,273.49l-19.65,30.11 c0.42,0.79,0.67,1.69,0.67,2.65c0,3.07-2.49,5.55-5.56,5.55c-3.06,0-5.55-2.48-5.55-5.55s2.49-5.56,5.55-5.56 c0.3,0,0.58,0.02,0.87,0.07l19.55-29.96c0.75-1.13,2.27-1.46,3.41-0.71C375.73,270.82,376.04,272.35,375.31,273.49z" transform="matrix(1, 0, 0, 1, -1.4210854715202004e-14, 0)"/>
  <path style="fill:url(#SVGID_00000053525760923821175390000015935072234377269122_);" d="M420.35,274.61L402.1,303.9 c0.58,0.88,0.92,1.93,0.92,3.06c0,3.07-2.48,5.56-5.55,5.56s-5.55-2.49-5.55-5.56c0-3.06,2.48-5.55,5.55-5.55 c0.13,0,0.25,0,0.37,0.02l15.99-25.67h-19.27l-20.2,31.79c-0.73,1.15-2.24,1.49-3.4,0.76c-1.14-0.73-1.49-2.24-0.76-3.4 l20.92-32.93c0.45-0.71,1.24-1.14,2.08-1.14h25.06c0.9,0,1.72,0.49,2.16,1.27C420.85,272.88,420.83,273.84,420.35,274.61z" transform="matrix(1, 0, 0, 1, -1.4210854715202004e-14, 0)"/>
  <path style="fill:url(#SVGID_00000183217094450174259810000006944341485211823519_);" d="M387,238.94c-0.44,0.75-1.25,1.2-2.12,1.2 h-55.11c-1.36,0-2.46-1.1-2.46-2.46v-27.88c0-1.36,1.1-2.46,2.46-2.46s2.46,1.1,2.46,2.46v25.42h48.51l-25.2-46.25h-33.92 c-0.9,1.83-2.79,3.09-4.97,3.09c-3.07,0-5.55-2.48-5.55-5.55c0-3.07,2.48-5.55,5.55-5.55c2.19,0,4.08,1.26,4.97,3.09h35.37 c0.91,0,1.73,0.49,2.17,1.28l27.88,51.18C387.45,237.26,387.45,238.19,387,238.94z" transform="matrix(1, 0, 0, 1, -1.4210854715202004e-14, 0)"/>
  <path style="fill:url(#SVGID_00000180341047446239554160000007684996401925858993_);" d="M256.04,237.29 c-0.44,0.34-0.97,0.51-1.5,0.51c-0.74,0-1.47-0.33-1.95-0.96l-10.92-14.22c-0.32,0.06-0.66,0.09-0.99,0.09 c-3.07,0-5.55-2.49-5.55-5.56c0-3.06,2.48-5.55,5.55-5.55c3.07,0,5.55,2.49,5.55,5.55c0,0.91-0.22,1.76-0.61,2.52l10.87,14.17 C257.32,234.92,257.12,236.46,256.04,237.29z" transform="matrix(1, 0, 0, 1, -1.4210854715202004e-14, 0)"/>
  <path style="fill:url(#SVGID_00000148631763851842336190000005201555635607421829_);" d="M254.47,311.69 c-0.42,0.3-0.91,0.43-1.39,0.43c-0.79,0-1.56-0.38-2.04-1.08l-33.2-48.92c-0.3,0.05-0.6,0.08-0.91,0.08 c-3.07,0-5.56-2.48-5.56-5.55c0-3.07,2.49-5.55,5.56-5.55c3.06,0,5.55,2.48,5.55,5.55c0,0.95-0.24,1.83-0.65,2.61l33.28,49.02 C255.89,309.4,255.6,310.94,254.47,311.69z" transform="matrix(1, 0, 0, 1, -1.4210854715202004e-14, 0)"/>
  <path style="fill:url(#SVGID_00000048463254383302484740000001044267687575528597_);" d="M223.77,352.96 c-0.4,0.25-0.85,0.36-1.28,0.36c-0.83,0-1.64-0.42-2.11-1.19l-41.75-68.8h-0.03c-2.86,0-5.19-2.32-5.19-5.19 c0-2.87,2.32-5.19,5.19-5.19s5.19,2.32,5.19,5.19c0,1.04-0.31,2.01-0.84,2.83l41.65,68.61 C225.3,350.74,224.94,352.26,223.77,352.96z" transform="matrix(1, 0, 0, 1, -1.4210854715202004e-14, 0)"/>
  <path style="fill:url(#SVGID_00000016776032776808079550000016798786234741143450_);" d="M391.21,326.39 c0,3.07-2.48,5.55-5.55,5.55c-0.19,0-0.36-0.01-0.55-0.03l-10.73,17.11c-0.46,0.74-1.27,1.15-2.09,1.15c-0.44,0-0.9-0.12-1.3-0.37 c-1.15-0.73-1.51-2.24-0.78-3.4l10.72-17.11c-0.53-0.85-0.83-1.84-0.83-2.9c0-3.07,2.48-5.55,5.55-5.55 C388.72,320.84,391.21,323.32,391.21,326.39z" transform="matrix(1, 0, 0, 1, -1.4210854715202004e-14, 0)"/>
  <path style="fill:url(#SVGID_00000099636731956821262480000005079463703359264169_);" d="M440.46,276.66l-41.4,69.01 c0.65,0.91,1.02,2.02,1.02,3.22c0,3.06-2.48,5.55-5.55,5.55c-3.07,0-5.55-2.49-5.55-5.55c0-3.07,2.48-5.56,5.55-5.56 c0.06,0,0.13,0,0.19,0.01l41.52-69.2c0.7-1.16,2.22-1.55,3.38-0.84C440.79,273.99,441.16,275.5,440.46,276.66z" transform="matrix(1, 0, 0, 1, -1.4210854715202004e-14, 0)"/>
</svg>