<svg width="768" height="114" viewBox="0 0 768 114" fill="none" xmlns="http://www.w3.org/2000/svg">
<path d="M48.2884 113.163C37.3811 113.163 28.1682 110.794 20.6496 106.056C13.131 101.318 7.78331 94.7775 4.60645 86.4345L23.35 75.774C27.6917 86.795 36.2163 92.3055 48.9238 92.3055C54.8539 92.3055 59.3015 91.2755 62.2666 89.2155C65.2317 87.1555 66.7142 84.3745 66.7142 80.8725C66.7142 77.0615 64.9669 74.126 61.4724 72.066C57.9778 69.903 51.73 67.5855 42.7289 65.1135C32.9865 62.2295 25.309 58.882 19.6966 55.071C12.7075 50.024 9.2129 42.608 9.2129 32.823C9.2129 22.935 12.7604 15.1585 19.8554 9.49352C26.9504 3.62251 35.5809 0.687012 45.7469 0.687012C54.6421 0.687012 62.5313 2.79851 69.4146 7.02151C76.2978 11.2445 81.6455 17.2185 85.4577 24.9435L67.0319 35.295C62.5843 26.025 55.4893 21.39 45.7469 21.39C41.2993 21.39 37.7518 22.42 35.1044 24.48C32.457 26.437 31.1333 29.012 31.1333 32.205C31.1333 35.604 32.5629 38.385 35.4221 40.548C38.5989 42.711 44.2114 44.977 52.2595 47.346L59.8839 49.818C61.2606 50.23 63.6432 51.1055 67.0319 52.4445C70.2088 53.5775 72.5385 54.659 74.021 55.689C79.2099 58.779 82.7044 61.972 84.5047 65.268C87.258 69.594 88.6346 74.6925 88.6346 80.5635C88.6346 90.5545 84.8753 98.4855 77.3567 104.357C69.8381 110.228 60.1487 113.163 48.2884 113.163Z" fill="#061B2B"/>
<path d="M176.018 68.8215V2.85001H197.939V111H181.26L133.607 44.874V111H111.687V2.85001H128.365L176.018 68.8215Z" fill="#061B2B"/>
<path d="M281.467 52.908H337.221V61.251C337.221 76.701 332.138 89.2155 321.972 98.7945C311.806 108.374 298.675 113.163 282.579 113.163C265.424 113.163 251.181 107.756 239.85 96.9405C228.625 86.0225 223.012 72.7355 223.012 57.0795C223.012 41.3205 228.572 27.982 239.691 17.064C250.916 6.14601 264.788 0.687012 281.308 0.687012C291.58 0.687012 301.004 2.95301 309.582 7.48502C318.16 12.017 324.884 18.1455 329.755 25.8705L311.012 36.3765C308.364 31.9475 304.34 28.3425 298.94 25.5615C293.539 22.7805 287.609 21.39 281.149 21.39C270.454 21.39 261.717 24.789 254.94 31.587C248.163 38.179 244.774 46.6765 244.774 57.0795C244.774 67.2765 248.216 75.7225 255.099 82.4175C261.982 89.0095 271.195 92.3055 282.737 92.3055C291.103 92.3055 298.092 90.503 303.705 86.898C309.317 83.293 313.13 78.246 315.142 71.757H281.467V52.908Z" fill="#061B2B"/>
<path d="M403.025 113.163C390.636 113.163 380.47 109.764 372.527 102.966C364.585 96.168 360.614 87.0525 360.614 75.6195V2.85001H382.376V73.92C382.376 79.688 384.07 84.22 387.459 87.516C390.953 90.709 396.142 92.3055 403.025 92.3055C409.909 92.3055 415.045 90.709 418.433 87.516C421.928 84.22 423.675 79.688 423.675 73.92V2.85001H445.595V75.6195C445.595 87.0525 441.624 96.168 433.682 102.966C425.74 109.764 415.521 113.163 403.025 113.163Z" fill="#061B2B"/>
<path d="M496.794 2.85001V90.606H539.205V111H474.873V2.85001H496.794Z" fill="#061B2B"/>
<path d="M659.597 111H635.771L629.099 91.533H584.782L578.11 111H554.443L593.359 2.85001H620.522L659.597 111ZM607.02 27.4155L591.771 71.6025H622.269L607.02 27.4155Z" fill="#061B2B"/>
<path d="M764.588 111H740.92L718.523 73.4565H701.844V111H679.924V2.85001H724.4C734.672 2.85001 743.409 6.35201 750.609 13.356C757.81 20.36 761.411 28.806 761.411 38.694C761.411 45.389 759.452 51.6205 755.534 57.3885C751.615 63.0535 746.427 67.328 739.967 70.212L764.588 111ZM724.4 22.7805H701.844V54.762H724.4C728.53 54.762 732.078 53.217 735.043 50.127C738.008 46.934 739.49 43.123 739.49 38.694C739.49 34.265 738.008 30.5055 735.043 27.4155C732.078 24.3255 728.53 22.7805 724.4 22.7805Z" fill="#061B2B"/>
</svg>
