<?xml version="1.0" encoding="utf-8"?>
<!-- Generator: Adobe Illustrator 24.0.3, SVG Export Plug-In . SVG Version: 6.00 Build 0)  -->
<svg version="1.1" xmlns="http://www.w3.org/2000/svg" xmlns:xlink="http://www.w3.org/1999/xlink" x="0px" y="0px"
	 viewBox="0 0 1092 200" style="enable-background:new 0 0 1092 200;" xml:space="preserve">
<style type="text/css">
	.st0{fill:#2F251B;}
	.st1{fill:#B53784;}
</style>
<g id="_x31_00">
</g>
<g id="Capa_1">
	<g>
		<g>
			<path class="st0" d="M376.9,104.7c0,4-0.2,6.2-1.6,9.1c-1.7,3.3-5.2,6.2-11.1,6.2c-5.9,0-9.4-2.9-11.1-6.2
				c-1.4-2.9-1.6-5.1-1.6-9.1V79.2h5.1v26.3c0,6.3,2.8,10.4,7.6,10.4c4.8,0,7.6-4.1,7.6-10.4V79.2h5.1V104.7z"/>
			<polygon class="st0" points="385.8,79.2 392.1,79.2 407.4,112.6 407.5,112.6 407.5,79.2 412.4,79.2 412.4,119.6 406.1,119.6 
				390.8,86.5 390.7,86.5 390.7,119.6 385.8,119.6 			"/>
			<rect x="421.3" y="79.2" class="st0" width="5.1" height="40.5"/>
			<polygon class="st0" points="431.4,79.2 437,79.2 446.4,112.2 446.5,112.2 456.4,79.2 461.5,79.2 448.8,119.6 443.7,119.6 			"/>
			<polygon class="st0" points="466.5,79.2 485.3,79.2 485.3,83.6 471.6,83.6 471.6,96.4 484.7,96.4 484.7,100.8 471.6,100.8 
				471.6,115.2 486.1,115.2 486.1,119.6 466.5,119.6 			"/>
			<path class="st0" d="M498.4,83.3h4.1c4.5,0,7.4,2.2,7.4,6.7c0,3.5-2.1,7.1-7.5,7.1h-4V83.3 M493.3,119.6h5.1v-18.3h2.3
				c3.8,0,5.3,1.3,6.4,4.6l4.6,13.7h5.5l-5.7-16.2c-0.8-2.3-2-3.5-4.4-3.9v-0.1c6-1.3,8-5.4,8-9.7c0-3-0.9-5.7-3-7.7
				c-1.9-1.8-4.2-2.8-8.5-2.8h-10.4V119.6z"/>
			<path class="st0" d="M540.1,85c-1.9-1.2-4.4-1.8-6.9-1.8c-3.8,0-6.3,2.6-6.3,6c0,2.6,1.1,4.2,6.9,7.6c6.3,3.6,8.3,7.1,8.3,11.8
				c0,6.4-4,11.5-11.8,11.5c-3.2,0-6.3-0.7-8.5-1.7V113c2.3,1.4,5.3,2.6,7.7,2.6c4.6,0,7.2-3.1,7.2-6.4c0-3.1-0.8-4.9-6.3-8.2
				c-7.3-4.4-8.9-6.9-8.9-12.1c0-6.7,5.1-10.2,11.2-10.2c2.7,0,5.5,0.6,7.3,1.3V85z"/>
			<rect x="549.2" y="79.2" class="st0" width="5.1" height="40.5"/>
			<path class="st0" d="M567.7,83.6h3.1c10,0,13.6,6.7,13.6,15.2c0,10.4-4.6,16.5-13.6,16.5h-3.1V83.6 M562.6,119.6h6.3
				c15.2,0,20.7-9.2,20.7-20.9c0-9.1-3.9-14.2-7.5-16.7c-2.3-1.6-5.4-2.9-10.8-2.9h-8.8V119.6z"/>
			<path class="st0" d="M601.2,104.7l6.4-20.2h0.1l6.2,20.2H601.2 M605,79.2l-13.6,40.5h5.1l3.3-10.6h15.4l3.2,10.6h5.3l-13.2-40.5
				H605z"/>
			<path class="st0" d="M633.3,83.6h3.1c10,0,13.6,6.7,13.6,15.2c0,10.4-4.6,16.5-13.6,16.5h-3.1V83.6 M628.2,119.6h6.3
				c15.2,0,20.7-9.2,20.7-20.9c0-9.1-3.9-14.2-7.5-16.7c-2.3-1.6-5.4-2.9-10.8-2.9h-8.8V119.6z"/>
			<polygon class="st0" points="662.1,79.2 680.9,79.2 680.9,83.6 667.1,83.6 667.1,96.4 680.3,96.4 680.3,100.8 667.1,100.8 
				667.1,115.2 681.6,115.2 681.6,119.6 662.1,119.6 			"/>
			<path class="st0" d="M707.3,83.6h3.1c10,0,13.6,6.7,13.6,15.2c0,10.4-4.6,16.5-13.6,16.5h-3.1V83.6 M702.2,119.6h6.3
				c15.2,0,20.8-9.2,20.8-20.9c0-9.1-3.9-14.2-7.5-16.7c-2.3-1.6-5.4-2.9-10.8-2.9h-8.8V119.6z"/>
			<path class="st0" d="M740.8,104.7l6.4-20.2h0.1l6.2,20.2H740.8 M744.6,79.2l-13.6,40.5h5.1l3.2-10.6h15.4l3.2,10.6h5.4
				l-13.2-40.5H744.6z"/>
			<path class="st0" d="M806.2,118.8c-2.4,0.8-5,1.2-7.4,1.2c-12.8,0-18.2-9.7-18.2-20.7c0-12.7,7.4-20.6,17.9-20.6
				c2.9,0,5.8,0.5,7.6,1.4v5c-2.2-1.4-4.8-2-7.6-2c-6.6,0-12.6,5.3-12.6,15.1c0,10.5,4.2,17.4,13,17.4c2.6,0,5.1-0.7,7.2-1.9V118.8z
				"/>
			<path class="st0" d="M817.1,99.8c0-12.5,4.5-16.9,9.9-16.9c6.9,0,9.4,7.9,9.4,16.1c0,12.5-4.5,16.9-9.9,16.9
				C819.6,115.9,817.1,108,817.1,99.8 M811.7,99.8c0,12.5,5.7,20.2,14.7,20.2c9.6,0,15.2-7.1,15.2-21c0-12.5-5.7-20.2-14.7-20.2
				C817.3,78.8,811.7,85.8,811.7,99.8z"/>
			<path class="st0" d="M854,83.3h4.1c4.5,0,7.4,2.2,7.4,6.7c0,3.5-2.1,7.1-7.6,7.1h-4V83.3 M848.9,119.6h5.1v-18.3h2.3
				c3.8,0,5.2,1.3,6.4,4.6l4.6,13.7h5.5l-5.7-16.2c-0.8-2.3-2-3.5-4.4-3.9v-0.1c6-1.3,8-5.4,8-9.7c0-3-0.9-5.7-3-7.7
				c-1.8-1.8-4.2-2.8-8.5-2.8h-10.4V119.6z"/>
			<path class="st0" d="M904.4,104.7c0,4-0.2,6.2-1.6,9.1c-1.7,3.3-5.2,6.2-11.1,6.2c-5.8,0-9.4-2.9-11.1-6.2
				c-1.4-2.9-1.6-5.1-1.6-9.1V79.2h5.1v26.3c0,6.3,2.8,10.4,7.6,10.4c4.8,0,7.6-4.1,7.6-10.4V79.2h5.1V104.7z"/>
			<path class="st0" d="M935.1,69.7c-0.6,3.8-2.1,6.2-4.9,6.2c-0.9,0-1.9-0.2-4-1.2c-1.8-0.9-2.2-1-2.7-1c-1,0-2.1,0.6-2.3,2.5h-3
				c0.4-4,2.3-6.2,5.5-6.2c1.1,0,2.1,0.3,4.4,1.4c1.2,0.6,1.6,0.8,2,0.8c1,0,1.6-0.9,2-2.5H935.1 M913.3,79.2h6.3l15.2,33.4h0.1
				V79.2h4.9v40.5h-6.3l-15.3-33.2h-0.1v33.2h-4.9V79.2z"/>
			<path class="st0" d="M954.6,104.7l6.4-20.2h0.1l6.2,20.2H954.6 M958.4,79.2l-13.6,40.5h5.1l3.2-10.6h15.4l3.2,10.6h5.3
				l-13.2-40.5H958.4z"/>
		</g>
		<g>
			<path class="st1" d="M216.2,98.7L297,62.2c-20.3-10.3-49-16.7-80.8-16.7c-31.8,0-60.5,6.4-80.8,16.7L216.2,98.7z"/>
			<path class="st1" d="M326.3,90.4c-2.3-6.5-6.9-12.6-13.5-18.1l-90.3,25.9L326.3,90.4z"/>
			<path class="st1" d="M313.3,126c6.6-5.6,11.1-11.7,13.3-18.3l-104.2-7.3L313.3,126z"/>
			<path class="st1" d="M216.2,100.1l-81.4,36.2c20.4,10.5,49.3,17,81.4,17c32.1,0,61-6.5,81.4-17L216.2,100.1z"/>
			<path class="st1" d="M105.8,107.7c2.1,6.6,6.7,12.8,13.2,18.3l91-25.6L105.8,107.7z"/>
			<path class="st1" d="M209.9,98.2l-90.3-25.9c-6.6,5.5-11.3,11.6-13.5,18.1L209.9,98.2z"/>
		</g>
	</g>
</g>
</svg>
